<svg width="49" height="48" viewBox="0 0 49 48" fill="none" xmlns="http://www.w3.org/2000/svg">
<path opacity="0.1" fill-rule="evenodd" clip-rule="evenodd" d="M24.2897 46.7386C36.9201 46.7386 47.159 36.4997 47.159 23.8693C47.159 11.2389 36.9201 1 24.2897 1C11.6594 1 1.42041 11.2389 1.42041 23.8693C1.42041 36.4997 11.6594 46.7386 24.2897 46.7386Z" stroke="white" stroke-width="1.96023"/>
<g clip-path="url(#clip0_9_5685)">
<path d="M24.9429 15.5925C27.0141 15.5925 27.2726 15.6002 28.0852 15.6383C28.897 15.6764 29.4497 15.8037 29.9361 15.9927C30.4392 16.1864 30.863 16.4486 31.2869 16.8717C31.6745 17.2528 31.9744 17.7137 32.1658 18.2225C32.3541 18.7081 32.4822 19.2615 32.5203 20.0734C32.5561 20.886 32.566 21.1444 32.566 23.2156C32.566 25.2868 32.5584 25.5453 32.5203 26.3579C32.4822 27.1697 32.3541 27.7224 32.1658 28.2088C31.975 28.7178 31.675 29.1789 31.2869 29.5596C30.9057 29.9471 30.4448 30.247 29.9361 30.4385C29.4505 30.6268 28.897 30.7549 28.0852 30.793C27.2726 30.8288 27.0141 30.8387 24.9429 30.8387C22.8717 30.8387 22.6133 30.8311 21.8007 30.793C20.9888 30.7549 20.4361 30.6268 19.9498 30.4385C19.4408 30.2476 18.9798 29.9476 18.599 29.5596C18.2113 29.1786 17.9113 28.7176 17.72 28.2088C17.531 27.7232 17.4037 27.1697 17.3656 26.3579C17.3297 25.5453 17.3198 25.2868 17.3198 23.2156C17.3198 21.1444 17.3274 20.886 17.3656 20.0734C17.4037 19.2608 17.531 18.7089 17.72 18.2225C17.9108 17.7134 18.2108 17.2523 18.599 16.8717C18.9799 16.4838 19.4409 16.1839 19.9498 15.9927C20.4361 15.8037 20.9881 15.6764 21.8007 15.6383C22.6133 15.6024 22.8717 15.5925 24.9429 15.5925ZM24.9429 19.4041C23.932 19.4041 22.9626 19.8057 22.2478 20.5205C21.533 21.2353 21.1314 22.2047 21.1314 23.2156C21.1314 24.2265 21.533 25.196 22.2478 25.9108C22.9626 26.6256 23.932 27.0272 24.9429 27.0272C25.9538 27.0272 26.9233 26.6256 27.6381 25.9108C28.3529 25.196 28.7545 24.2265 28.7545 23.2156C28.7545 22.2047 28.3529 21.2353 27.6381 20.5205C26.9233 19.8057 25.9538 19.4041 24.9429 19.4041ZM29.8979 19.2135C29.8979 18.9608 29.7976 18.7184 29.6189 18.5397C29.4402 18.361 29.1978 18.2606 28.9451 18.2606C28.6923 18.2606 28.45 18.361 28.2713 18.5397C28.0926 18.7184 27.9922 18.9608 27.9922 19.2135C27.9922 19.4662 28.0926 19.7086 28.2713 19.8873C28.45 20.066 28.6923 20.1664 28.9451 20.1664C29.1978 20.1664 29.4402 20.066 29.6189 19.8873C29.7976 19.7086 29.8979 19.4662 29.8979 19.2135ZM24.9429 20.9287C25.5495 20.9287 26.1312 21.1696 26.56 21.5985C26.9889 22.0274 27.2299 22.6091 27.2299 23.2156C27.2299 23.8222 26.9889 24.4039 26.56 24.8327C26.1312 25.2616 25.5495 25.5026 24.9429 25.5026C24.3364 25.5026 23.7547 25.2616 23.3258 24.8327C22.8969 24.4039 22.656 23.8222 22.656 23.2156C22.656 22.6091 22.8969 22.0274 23.3258 21.5985C23.7547 21.1696 24.3364 20.9287 24.9429 20.9287Z" fill="white"/>
</g>
<defs>
<clipPath id="clip0_9_5685">
<rect width="18.2955" height="18.2955" fill="white" transform="translate(15.7954 14.0681)"/>
</clipPath>
</defs>
</svg>
