<svg width="48" height="48" viewBox="0 0 48 48" fill="none" xmlns="http://www.w3.org/2000/svg">
<path opacity="0.1" fill-rule="evenodd" clip-rule="evenodd" d="M23.8693 46.7386C36.4997 46.7386 46.7386 36.4997 46.7386 23.8693C46.7386 11.2389 36.4997 1 23.8693 1C11.2389 1 1 11.2389 1 23.8693C1 36.4997 11.2389 46.7386 23.8693 46.7386Z" stroke="white" stroke-width="1.96023"/>
<path d="M25.9513 18.0156H28.0532C28.2465 18.0156 28.4035 17.8677 28.4035 17.6855V15.7049C28.4035 15.5226 28.2465 15.3748 28.0532 15.3748H25.9513C23.827 15.3748 22.0979 17.0035 22.0979 19.0059V21.3165H19.6457C19.4523 21.3165 19.2954 21.4644 19.2954 21.6466V23.6272C19.2954 23.8095 19.4523 23.9573 19.6457 23.9573H22.0979V30.8894C22.0979 31.0716 22.2548 31.2195 22.4482 31.2195H24.5501C24.7434 31.2195 24.9004 31.0716 24.9004 30.8894V23.9573H27.3525C27.5032 23.9573 27.637 23.8662 27.6853 23.7316L28.3859 21.751C28.4217 21.6506 28.4035 21.5397 28.3376 21.4532C28.271 21.3674 28.166 21.3165 28.0532 21.3165H24.9004V19.0059C24.9004 18.4599 25.3719 18.0156 25.9513 18.0156Z" fill="white"/>
</svg>
