<svg width="108" height="108" viewBox="0 0 108 108" fill="none" xmlns="http://www.w3.org/2000/svg">
<rect width="108" height="108" rx="16" fill="#1F2022"/>
<path d="M76.998 77.9472C76.998 77.959 76.998 77.9648 76.998 77.9765C77.584 77.3906 78.1699 76.8047 78.7559 76.2187C78.3105 76.2187 77.8711 76.2187 77.4258 76.2187C76.2246 76.2187 75.0293 76.2187 73.8281 76.2187C72.0469 76.2187 70.2715 76.2187 68.4902 76.2187C66.3281 76.2187 64.166 76.2187 62.0039 76.2187C59.625 76.2187 57.2461 76.2187 54.873 76.2187C52.4707 76.2187 50.0742 76.2187 47.6719 76.2187C45.4453 76.2187 43.2129 76.2187 40.9863 76.2187C39.0996 76.2187 37.2188 76.2187 35.332 76.2187C33.9727 76.2187 32.6074 76.2187 31.248 76.2187C30.6035 76.2187 29.959 76.207 29.3145 76.2187C29.2852 76.2187 29.2617 76.2187 29.2324 76.2187C29.8184 76.8047 30.4043 77.3906 30.9902 77.9765C30.9902 76.8515 31.0664 75.7265 31.2129 74.6132C31.1895 74.7715 31.1719 74.9238 31.1484 75.082C31.4414 72.9375 32.0098 70.8398 32.8477 68.8476C32.7891 68.9882 32.7305 69.1289 32.6719 69.2695C33.1523 68.1269 33.7207 67.0195 34.3652 65.9648C34.6875 65.4375 35.0273 64.9277 35.3906 64.4238C35.4785 64.3007 35.5723 64.1777 35.666 64.0547C35.7129 63.9902 35.7598 63.9316 35.8066 63.873C35.9941 63.6211 35.5254 64.2304 35.7188 63.9843C35.9121 63.7441 36.0996 63.5039 36.2988 63.2695C37.0898 62.332 37.9512 61.4531 38.877 60.6386C39.1055 60.4336 39.3398 60.2343 39.5801 60.041C39.6797 59.9589 39.7793 59.8769 39.8789 59.8007C39.9375 59.7539 40.002 59.707 40.0605 59.6601C39.5801 60.041 39.9023 59.7832 40.0078 59.7011C40.5 59.332 41.0039 58.9804 41.5254 58.6465C42.6973 57.8964 43.9395 57.2461 45.2227 56.6953C45.082 56.7539 44.9414 56.8125 44.8008 56.8711C46.8223 56.0215 48.9434 55.4414 51.1113 55.1425C50.9531 55.166 50.8008 55.1836 50.6426 55.207C52.8574 54.914 55.1016 54.914 57.3164 55.207C57.1582 55.1836 57.0059 55.166 56.8477 55.1425C59.0215 55.4414 61.1426 56.0156 63.1582 56.8711C63.0176 56.8125 62.877 56.7539 62.7363 56.6953C63.8789 57.1816 64.9805 57.75 66.041 58.4004C66.5684 58.7226 67.0781 59.0683 67.5762 59.4257C67.6992 59.5136 67.8223 59.6074 67.9453 59.7011C68.0039 59.748 68.0684 59.7949 68.127 59.8418C67.6582 59.4961 67.9102 59.6777 68.0156 59.7539C68.2559 59.9414 68.4961 60.1406 68.7305 60.3339C69.668 61.1308 70.5469 61.9922 71.3555 62.9121C71.5605 63.1406 71.7539 63.375 71.9473 63.6152C72.0293 63.7148 72.1055 63.8144 72.1875 63.914C72.2695 64.0136 72.4512 64.2656 72.0996 63.8027C72.1641 63.8847 72.2227 63.9668 72.2871 64.0488C72.6562 64.541 73.0078 65.0507 73.3359 65.5664C74.0859 66.7441 74.7363 67.9804 75.2754 69.2636C75.2168 69.123 75.1582 68.9824 75.0996 68.8418C75.9375 70.8398 76.5059 72.9375 76.7988 75.0761C76.7754 74.9179 76.7578 74.7656 76.7344 74.6074C76.9219 75.7148 76.998 76.8281 76.998 77.9472C76.998 78.8672 77.8066 79.7461 78.7559 79.705C79.7051 79.664 80.5137 78.9316 80.5137 77.9472C80.502 72.5332 78.832 67.1132 75.6738 62.7011C72.498 58.2597 68.0859 54.8906 62.9531 53.0156C57.7852 51.1289 51.9668 50.9648 46.6875 52.4824C41.6016 53.9414 36.9375 56.9648 33.5801 61.0664C31.8047 63.2343 30.4043 65.6015 29.3555 68.1972C28.3242 70.7226 27.75 73.4179 27.5508 76.1425C27.5039 76.7519 27.4863 77.3672 27.4863 77.9765C27.4863 78.9257 28.2891 79.7343 29.2441 79.7343C29.6895 79.7343 30.1289 79.7343 30.5742 79.7343C31.7754 79.7343 32.9707 79.7343 34.1719 79.7343C35.9531 79.7343 37.7285 79.7343 39.5098 79.7343C41.6719 79.7343 43.834 79.7343 45.9961 79.7343C48.375 79.7343 50.7539 79.7343 53.127 79.7343C55.5293 79.7343 57.9258 79.7343 60.3281 79.7343C62.5547 79.7343 64.7871 79.7343 67.0137 79.7343C68.9004 79.7343 70.7812 79.7343 72.668 79.7343C74.0273 79.7343 75.3926 79.7343 76.752 79.7343C77.3965 79.7343 78.041 79.7402 78.6855 79.7343C78.7148 79.7343 78.7383 79.7343 78.7676 79.7343C79.7168 79.7343 80.5254 78.9316 80.5254 77.9765C80.5254 77.9648 80.5254 77.959 80.5254 77.9472C80.5254 77.0273 79.7168 76.1484 78.7676 76.1894C77.8008 76.2304 76.998 76.9629 76.998 77.9472Z" fill="#E2E5EC"/>
<path d="M81.4223 76.2192C80.3852 76.2192 79.3539 76.2192 78.3168 76.2192C77.2973 76.2192 76.2777 76.2192 75.2582 76.2192C73.4594 76.2192 71.6547 76.2192 69.8559 76.2192C67.5238 76.2192 65.1918 76.2192 62.8539 76.2192C60.2289 76.2192 57.6039 76.2192 54.9789 76.2192C52.3305 76.2192 49.682 76.2192 47.0395 76.2192C44.602 76.2192 42.1703 76.2192 39.7328 76.2192C37.7758 76.2192 35.8188 76.2192 33.8617 76.2192C32.6254 76.2192 31.3891 76.2192 30.1527 76.2192C29.3852 76.2192 28.6176 76.2192 27.85 76.2192C27.4223 76.2192 27.0004 76.2192 26.5727 76.2192C25.6527 76.2192 24.7738 77.0278 24.8149 77.977C24.8559 78.9321 25.5883 79.7348 26.5727 79.7348C27.6039 79.7348 28.6293 79.7348 29.6606 79.7348C30.686 79.7348 31.7113 79.7348 32.7426 79.7348C34.5473 79.7348 36.352 79.7348 38.1567 79.7348C40.4945 79.7348 42.8266 79.7348 45.1645 79.7348C47.7895 79.7348 50.4145 79.7348 53.0453 79.7348C55.6938 79.7348 58.3363 79.7348 60.9848 79.7348C63.4164 79.7348 65.8539 79.7348 68.2856 79.7348C70.2367 79.7348 72.1879 79.7348 74.1391 79.7348C75.3695 79.7348 76.6 79.7348 77.8305 79.7348C78.6039 79.7348 79.3832 79.7348 80.1567 79.7348C80.5785 79.7348 81.0004 79.7348 81.4164 79.7348C82.3363 79.7348 83.2153 78.9262 83.1742 77.977C83.1391 77.0219 82.4067 76.2192 81.4223 76.2192ZM47.4848 28.5063C46.6059 29.1801 45.8442 30.0121 45.3402 31.0082C44.8832 31.9047 44.5961 32.8832 44.6078 33.8969C44.6195 35.0922 45.018 36.2817 45.6742 37.2719C45.9262 37.6469 46.2016 38.0043 46.5004 38.35C46.7348 38.6254 46.9633 38.9301 47.2152 39.1879C46.9047 38.8774 47.0688 39.0004 47.1508 39.1176C47.2094 39.1938 47.2621 39.2758 47.3149 39.352C47.4027 39.475 47.4848 39.6039 47.561 39.7387C47.7074 39.9848 47.8363 40.2426 47.9535 40.5063C47.8949 40.3657 47.8363 40.225 47.7777 40.0844C47.936 40.4653 48.0531 40.8578 48.1059 41.268C48.0824 41.1098 48.0649 40.9575 48.0414 40.7992C48.0766 41.1098 48.0824 41.4145 48.0414 41.725C48.0649 41.5668 48.0824 41.4145 48.1059 41.2563C48.059 41.602 47.9652 41.936 47.8305 42.2582C47.8891 42.1176 47.9477 41.977 48.0063 41.8364C47.6723 42.6098 47.1215 43.2192 46.6586 43.9106C46.143 44.6723 46.4887 45.891 47.2914 46.3129C48.182 46.7817 49.143 46.5004 49.6938 45.6801C49.9399 45.311 50.227 44.9711 50.4789 44.6078C50.8539 44.0629 51.1527 43.4594 51.352 42.8266C51.932 41.0102 51.3695 39.0532 50.3266 37.5239C49.8988 36.9028 49.4008 36.3461 48.9145 35.7719C48.8793 35.7309 48.8266 35.6489 48.7797 35.6078C48.9379 35.8188 48.9789 35.8715 48.9027 35.766C48.8735 35.725 48.8442 35.684 48.8149 35.6489C48.7328 35.5317 48.6567 35.4145 48.5805 35.2973C48.4399 35.0629 48.3168 34.8227 48.2055 34.5707C48.2641 34.7114 48.3227 34.852 48.3813 34.9926C48.2406 34.641 48.1352 34.2836 48.0824 33.9028C48.1059 34.061 48.1235 34.2133 48.1469 34.3715C48.1 34.0141 48.1059 33.6625 48.1469 33.311C48.1235 33.4692 48.1059 33.6215 48.0824 33.7797C48.1352 33.3989 48.2465 33.0297 48.393 32.6723C48.3344 32.8129 48.2758 32.9535 48.2172 33.0942C48.352 32.7836 48.516 32.4848 48.7035 32.2035C48.7445 32.1391 48.7914 32.0805 48.8324 32.016C49.0258 31.7407 48.5453 32.3676 48.7152 32.1625C48.8031 32.0571 48.891 31.9516 48.9848 31.852C49.1195 31.7055 49.2543 31.5649 49.4008 31.436C49.4477 31.395 49.4945 31.3539 49.5414 31.3188C49.7406 31.1489 49.2192 31.5649 49.2426 31.5473C49.6235 31.2543 49.9164 30.9789 50.0512 30.4985C50.1684 30.0766 50.1156 29.52 49.8754 29.145C49.6352 28.77 49.2719 28.4418 48.8266 28.3364C48.4106 28.2309 47.8481 28.225 47.4848 28.5063ZM59.2856 32.684C58.4067 33.3578 57.6449 34.1899 57.141 35.186C56.684 36.0825 56.3969 37.061 56.4086 38.0746C56.4203 39.27 56.8188 40.4594 57.475 41.4496C57.727 41.8246 58.0024 42.1821 58.3012 42.5278C58.5356 42.8032 58.7641 43.1078 59.016 43.3657C58.7055 43.0551 58.8695 43.1782 58.9516 43.2953C59.0102 43.3715 59.0629 43.4535 59.1156 43.5297C59.2035 43.6528 59.2856 43.7817 59.3617 43.9164C59.5082 44.1625 59.6371 44.4203 59.7543 44.684C59.6957 44.5434 59.6371 44.4028 59.5785 44.2621C59.7367 44.643 59.8539 45.0356 59.9067 45.4457C59.8832 45.2875 59.8656 45.1352 59.8422 44.977C59.8774 45.2875 59.8832 45.5922 59.8422 45.9028C59.8656 45.7446 59.8832 45.5922 59.9067 45.434C59.8598 45.7797 59.766 46.1137 59.6313 46.436C59.6899 46.2953 59.7485 46.1547 59.807 46.0141C59.4731 46.7875 58.9223 47.3969 58.4594 48.0883C57.9438 48.85 58.2895 50.0688 59.0922 50.4907C59.9828 50.9594 60.9438 50.6782 61.4945 49.8578C61.7406 49.4887 62.0277 49.1489 62.2797 48.7856C62.6547 48.2407 62.9535 47.6371 63.1528 47.0043C63.7328 45.1879 63.1703 43.2309 62.1274 41.7016C61.6996 41.0805 61.2016 40.5239 60.7152 39.9496C60.6801 39.9086 60.6274 39.8266 60.5805 39.7856C60.7387 39.9965 60.7797 40.0492 60.7035 39.9438C60.6742 39.9028 60.6449 39.8617 60.6156 39.8266C60.5336 39.7094 60.4574 39.5922 60.3813 39.475C60.2406 39.2407 60.1176 39.0004 60.0063 38.7485C60.0649 38.8891 60.1235 39.0297 60.182 39.1703C60.0414 38.8188 59.936 38.4614 59.8832 38.0805C59.9067 38.2387 59.9242 38.391 59.9477 38.5492C59.9008 38.1918 59.9067 37.8403 59.9477 37.4887C59.9242 37.6469 59.9067 37.7992 59.8832 37.9575C59.936 37.5766 60.0473 37.2075 60.1938 36.85C60.1352 36.9907 60.0766 37.1313 60.018 37.2719C60.1528 36.9614 60.3168 36.6625 60.5043 36.3813C60.5453 36.3168 60.5922 36.2582 60.6332 36.1938C60.8266 35.9184 60.3461 36.5453 60.516 36.3403C60.6039 36.2348 60.6918 36.1293 60.7856 36.0297C60.9203 35.8832 61.0551 35.7426 61.2016 35.6137C61.2485 35.5727 61.2953 35.5317 61.3422 35.4965C61.5414 35.3266 61.0199 35.7426 61.0434 35.725C61.4242 35.4321 61.7172 35.1567 61.852 34.6762C61.9692 34.2543 61.9164 33.6977 61.6762 33.3227C61.436 32.9477 61.0727 32.6196 60.6274 32.5141C60.2113 32.4086 59.6547 32.4028 59.2856 32.684Z" fill="#E2E5EC"/>
</svg>
