<svg width="109" height="108" viewBox="0 0 109 108" fill="none" xmlns="http://www.w3.org/2000/svg">
<rect x="0.5" width="108" height="108" rx="16" fill="#1F2022"/>
<path d="M53.9996 60.4829C53.6071 60.4829 53.2321 60.5254 52.8446 60.5354L48.8921 49.3579L61.2671 44.9829C62.2446 44.6379 62.7546 43.5679 62.4096 42.5904C59.3071 33.8179 49.6446 29.2079 40.8746 32.3054C32.1021 35.4054 27.4896 45.0654 30.5896 53.8404C30.7546 54.3104 31.0996 54.6929 31.5496 54.9079C31.8046 55.0304 32.0796 55.0904 32.3571 55.0904C32.5671 55.0904 32.7796 55.0529 32.9821 54.9829L45.3571 50.6079L48.9696 60.8204C40.6146 61.8429 33.6546 65.3229 30.9071 70.1704C30.1271 71.5479 30.1346 73.1879 30.9321 74.5554C31.7271 75.9179 33.1421 76.7304 34.7196 76.7304H73.2871C74.8646 76.7304 76.2796 75.9179 77.0746 74.5554C77.8696 73.1879 77.8796 71.5479 77.0996 70.1704C73.8121 64.3754 64.5321 60.4804 54.0046 60.4804L53.9996 60.4829ZM33.6246 50.7804C33.0671 48.0154 33.4171 45.1529 34.6571 42.5604C35.4246 40.9529 36.4921 39.5529 37.7846 38.4029C37.7721 38.7379 37.7496 39.0554 37.7546 39.4279C37.8021 42.1279 38.4171 45.3779 39.4496 48.7204L33.6246 50.7804ZM52.1546 36.3729C54.7471 37.6104 56.8171 39.6154 58.1246 42.1179L52.3171 44.1704C50.9246 40.6854 49.1046 37.3879 47.1196 35.1179C48.8446 35.2004 50.5496 35.6054 52.1546 36.3729ZM42.9871 47.4704C40.8946 40.6229 41.4721 36.3729 42.1146 35.8579C42.9146 35.8529 46.0821 38.8029 48.7596 45.4304L42.9871 47.4704ZM73.8271 72.6679C73.7596 72.7854 73.5971 72.9829 73.2821 72.9829H34.7171C34.4021 72.9829 34.2396 72.7854 34.1721 72.6679C34.1021 72.5479 34.0096 72.3054 34.1696 72.0229C36.7721 67.4354 44.9271 64.2329 54.0021 64.2329C63.0771 64.2329 71.2346 67.4354 73.8346 72.0229C73.9946 72.3054 73.9021 72.5479 73.8321 72.6679H73.8271ZM70.2471 59.2329C74.7271 59.2329 78.3721 55.5879 78.3721 51.1079C78.3721 46.6279 74.7271 42.9829 70.2471 42.9829C65.7671 42.9829 62.1221 46.6279 62.1221 51.1079C62.1221 55.5879 65.7671 59.2329 70.2471 59.2329ZM70.2471 46.7329C72.6596 46.7329 74.6221 48.6954 74.6221 51.1079C74.6221 53.5204 72.6596 55.4829 70.2471 55.4829C67.8346 55.4829 65.8721 53.5204 65.8721 51.1079C65.8721 48.6954 67.8346 46.7329 70.2471 46.7329Z" fill="#E2E5EC"/>
</svg>
