<svg width="109" height="108" viewBox="0 0 109 108" fill="none" xmlns="http://www.w3.org/2000/svg">
<rect x="0.5" width="108" height="108" rx="16" fill="#1F2022"/>
<path d="M71.9998 74.5712C72.5141 75.5998 74.057 74.7427 73.5427 73.7998C63.5141 55.5427 63.7713 53.5712 62.3141 54.3427C60.857 55.1141 62.5713 55.9712 71.9998 74.5712ZM60.4284 52.6284C60.6856 53.057 61.1998 53.2284 61.5427 52.9712C62.5713 52.4569 61.5427 51.1712 61.457 50.9998C61.1998 50.5712 60.6856 50.3998 60.3427 50.657C59.3141 51.1712 60.3427 52.3712 60.4284 52.6284Z" fill="#E2E5EC"/>
<path d="M82.2859 49.9717C82.2859 47.2289 80.1431 44.9146 77.4002 44.7432C77.4859 41.486 74.8288 38.7432 71.5716 38.7432C68.4002 38.7432 65.6574 41.3146 65.7431 44.7432C64.8859 44.7432 64.1145 45.0003 63.4288 45.4289C62.4859 44.0574 62.0574 41.2289 59.4002 41.2289C58.2859 41.2289 57.2574 41.8289 56.7431 42.8574L47.7431 59.5717L45.0859 54.6003C44.3145 53.0575 42.4288 52.5432 40.8859 53.4003C39.2574 47.5717 30.6859 48.686 30.6859 54.7717C28.2859 54.9432 26.3145 57.0003 26.3145 59.486C26.3145 62.0575 28.4574 64.2003 31.0288 64.2003H34.7145L25.8002 81.0003C25.5431 81.6003 25.8859 82.286 26.5716 82.286H81.4288C82.1145 82.286 82.4574 81.6003 82.2002 81.0003L68.5716 55.2003H77.0574C79.8859 55.2003 82.2859 52.8003 82.2859 49.9717ZM31.0288 62.4003C29.4002 62.4003 28.0288 61.0289 28.0288 59.4003C28.0288 57.6003 29.6574 56.1432 31.5431 56.486C32.1431 56.5717 32.6574 56.0574 32.4859 55.4575C31.9716 53.0575 33.7716 51.1717 35.9145 51.1717C38.0574 51.1717 39.7716 53.0574 39.3431 55.286L35.6574 62.3146H31.0288V62.4003ZM28.0288 80.5717C41.7431 55.1146 40.9716 54.686 42.5145 54.686C44.0574 54.686 43.2859 55.1146 57.0002 80.5717H28.0288ZM79.9716 80.5717H58.8002L48.7716 61.4575C58.6288 43.2003 57.8574 42.8574 59.3145 42.8574C60.8574 42.8574 59.5716 42.4289 79.9716 80.5717ZM67.6288 53.486L64.1145 46.886C65.7431 45.9432 66.6859 46.8003 67.2859 46.2003C67.7145 45.7717 67.3716 45.4289 67.3716 44.5717C67.3716 42.2574 69.2574 40.4574 71.4859 40.4574C73.8002 40.4574 75.6002 42.3432 75.6002 44.5717C75.6002 45.4289 75.2574 45.7717 75.6859 46.2003C76.0288 46.6289 76.4574 46.4574 76.8859 46.4574C78.8574 46.4574 80.4002 48.086 80.4002 49.9717C80.4002 51.9432 78.7716 53.486 76.8859 53.486H67.6288Z" fill="#E2E5EC"/>
<path d="M31.971 45.5996H45.5996C49.0282 45.5996 51.8567 42.771 51.8567 39.3424C51.8567 35.9996 49.1996 33.2567 45.8567 33.0853C46.1139 29.1424 42.9424 25.7139 38.9139 25.7139C34.8853 25.7139 31.7139 29.1424 31.8853 33.0853C28.4567 33.171 25.7139 35.9139 25.7139 39.3424C25.7139 42.8567 28.5424 45.5996 31.971 45.5996ZM32.7424 34.8853C33.3424 34.971 33.8567 34.4567 33.6853 33.8567C32.9139 30.5139 35.571 27.4282 38.8282 27.4282C41.9996 27.4282 44.6567 30.3424 43.971 33.8567C43.8853 34.4567 44.3996 34.971 44.9139 34.8853C47.4853 34.4567 50.0567 36.5996 50.0567 39.4282C50.0567 41.9139 47.9996 43.971 45.5139 43.971H31.971C29.4853 43.971 27.4282 41.9139 27.4282 39.4282C27.4282 36.6853 29.8282 34.371 32.7424 34.8853Z" fill="#E2E5EC"/>
</svg>
