<svg width="109" height="108" viewBox="0 0 109 108" fill="none" xmlns="http://www.w3.org/2000/svg">
<rect x="0.5" width="108" height="108" rx="16" fill="#1F2022"/>
<path d="M71.1973 62.7894C71.1973 63.0355 71.1797 63.2757 71.1445 63.5218C71.168 63.3636 71.1855 63.2113 71.209 63.0531C71.1445 63.4984 71.0215 63.932 70.8516 64.348C70.9102 64.2074 70.9688 64.0667 71.0273 63.9261C70.8984 64.2249 70.7461 64.512 70.5645 64.7816C70.541 64.8167 70.4473 64.9984 70.4062 65.0042C70.459 64.9984 70.7227 64.6175 70.4883 64.8929C70.3887 65.0101 70.2832 65.1273 70.1777 65.2327C70.0664 65.3441 69.9551 65.4437 69.8379 65.5433C69.7266 65.637 69.5039 65.7484 69.9492 65.4613C69.8848 65.5023 69.8262 65.555 69.7617 65.596C69.4805 65.7835 69.1875 65.9417 68.877 66.0765C69.0176 66.0179 69.1582 65.9593 69.2988 65.9007C68.8828 66.0765 68.4492 66.1937 68.0039 66.2581C68.1621 66.2347 68.3145 66.2171 68.4727 66.1937C68.0332 66.2523 67.5938 66.2464 67.1484 66.2464C66.498 66.2464 65.8535 66.2464 65.2031 66.2464C62.9824 66.2464 60.7676 66.2464 58.5469 66.2464C55.834 66.2464 53.1152 66.2464 50.4023 66.2464C48.0703 66.2464 45.7383 66.2464 43.4121 66.2464C42.3457 66.2464 41.2852 66.2523 40.2187 66.2464C39.9961 66.2464 39.7734 66.2288 39.5566 66.2054C39.7148 66.2288 39.8672 66.2464 40.0254 66.2699C39.5508 66.2054 39.0938 66.0824 38.6543 65.8949C38.7949 65.9535 38.9355 66.012 39.0762 66.0706C38.7773 65.9417 38.4902 65.7894 38.2207 65.6077C38.1797 65.5843 38.0098 65.4964 37.998 65.4495C38.0098 65.5023 38.3848 65.7601 38.1094 65.5316C37.9922 65.432 37.875 65.3265 37.7695 65.221C37.6582 65.1097 37.5527 64.9984 37.459 64.8812C37.3652 64.7699 37.248 64.5472 37.541 64.9925C37.5 64.9281 37.4473 64.8695 37.4062 64.805C37.2188 64.5238 37.0547 64.2308 36.9199 63.9202C36.9785 64.0609 37.0371 64.2015 37.0957 64.3421C36.9141 63.9027 36.7852 63.4456 36.7207 62.971C36.7441 63.1292 36.7617 63.2816 36.7852 63.4398C36.7148 62.848 36.7441 62.2386 36.7441 61.641C36.7441 60.5511 36.7441 59.4613 36.7441 58.3714C36.7441 55.8109 36.7441 53.2562 36.7441 50.6956C36.7441 50.098 36.7441 49.5003 36.7441 48.9085C36.1582 49.4945 35.5723 50.0804 34.9863 50.6663C36.2461 50.6663 37.5117 50.6663 38.7715 50.6663C41.8008 50.6663 44.8301 50.6663 47.8594 50.6663C51.5039 50.6663 55.1426 50.6663 58.7871 50.6663C61.9512 50.6663 65.1211 50.6663 68.2852 50.6663C69.8203 50.6663 71.3613 50.7015 72.8906 50.6663C72.9141 50.6663 72.9316 50.6663 72.9551 50.6663C72.3691 50.0804 71.7832 49.4945 71.1973 48.9085C71.1973 50.473 71.1973 52.0433 71.1973 53.6077C71.1973 56.1038 71.1973 58.5941 71.1973 61.0902C71.1973 61.6527 71.1973 62.221 71.1973 62.7894C71.1973 63.7093 72.0059 64.5882 72.9551 64.5472C73.9102 64.5062 74.7129 63.7738 74.7129 62.7894C74.7129 61.2249 74.7129 59.6546 74.7129 58.0902C74.7129 55.5941 74.7129 53.1038 74.7129 50.6077C74.7129 50.0394 74.7129 49.471 74.7129 48.9027C74.7129 47.9535 73.9102 47.1449 72.9551 47.1449C71.6953 47.1449 70.4297 47.1449 69.1699 47.1449C66.1406 47.1449 63.1113 47.1449 60.082 47.1449C56.4375 47.1449 52.7988 47.1449 49.1543 47.1449C45.9902 47.1449 42.8203 47.1449 39.6563 47.1449C38.1211 47.1449 36.5859 47.1156 35.0508 47.1449C35.0273 47.1449 35.0098 47.1449 34.9863 47.1449C34.0371 47.1449 33.2285 47.9476 33.2285 48.9027C33.2285 50.2152 33.2285 51.5277 33.2285 52.8343C33.2285 55.1663 33.2285 57.4984 33.2285 59.8245C33.2285 60.6273 33.2285 61.4242 33.2285 62.2269C33.2285 63.0531 33.2637 63.8792 33.4922 64.682C34.043 66.5921 35.4609 68.3089 37.2949 69.1058C38.291 69.5394 39.2988 69.762 40.3887 69.762C41.5195 69.762 42.6445 69.762 43.7754 69.762C45.8613 69.762 47.9531 69.762 50.0391 69.762C52.4531 69.762 54.8672 69.762 57.2871 69.762C59.4199 69.762 61.5586 69.762 63.6914 69.762C64.9336 69.762 66.1758 69.762 67.418 69.762C68.1152 69.762 68.8125 69.7152 69.4922 69.5394C71.3965 69.0531 73.1484 67.6644 73.9863 65.8773C74.4492 64.8988 74.707 63.8792 74.7188 62.7894C74.7246 61.8695 73.9043 60.9906 72.9609 61.0316C71.9941 61.0726 71.2031 61.805 71.1973 62.7894Z" fill="#E2E5EC"/>
<path d="M71.1975 34.1363C71.1975 35.8004 71.1975 37.4644 71.1975 39.1285C71.1975 41.7769 71.1975 44.4312 71.1975 47.0797C71.1975 47.689 71.1975 48.2925 71.1975 48.9019C71.7834 48.316 72.3694 47.73 72.9553 47.1441C71.6955 47.1441 70.4299 47.1441 69.1702 47.1441C66.1409 47.1441 63.1116 47.1441 60.0823 47.1441C56.4377 47.1441 52.7991 47.1441 49.1545 47.1441C45.9905 47.1441 42.8205 47.1441 39.6565 47.1441C38.1213 47.1441 36.5803 47.1089 35.051 47.1441C35.0276 47.1441 35.01 47.1441 34.9866 47.1441C35.5725 47.73 36.1584 48.316 36.7444 48.9019C36.7444 47.1617 36.7444 45.4273 36.7444 43.6871C36.7444 41.0093 36.7444 38.3257 36.7444 35.648C36.7444 34.8804 36.7034 34.0894 36.7971 33.3218C36.7737 33.48 36.7561 33.6324 36.7327 33.7906C36.8088 33.2398 36.9553 32.7125 37.1662 32.2027C37.1077 32.3433 37.0491 32.4839 36.9905 32.6246C37.1428 32.2671 37.3245 31.9273 37.5412 31.605C37.5998 31.5171 37.6643 31.441 37.717 31.3531C37.3948 31.8453 37.5823 31.523 37.6819 31.4058C37.8049 31.2593 37.9338 31.1187 38.0745 30.9839C38.2092 30.8492 38.3557 30.7261 38.5022 30.5972C38.7248 30.4097 38.1037 30.8902 38.4495 30.6382C38.5198 30.5855 38.5959 30.5328 38.6721 30.4859C39.0061 30.2632 39.3635 30.0757 39.7327 29.9234C39.592 29.982 39.4514 30.0406 39.3108 30.0992C39.8264 29.8882 40.3596 29.7476 40.9104 29.6714C40.7522 29.6949 40.5998 29.7125 40.4416 29.7359C41.467 29.607 42.5393 29.6832 43.5705 29.6832C45.633 29.6832 47.7014 29.6832 49.7639 29.6832C52.2834 29.6832 54.803 29.6832 57.3284 29.6832C59.4963 29.6832 61.6584 29.6832 63.8264 29.6832C64.7932 29.6832 65.7659 29.6773 66.7327 29.6832C67.008 29.6832 67.2776 29.7007 67.5471 29.7359C67.3889 29.7125 67.2366 29.6949 67.0784 29.6714C67.6291 29.7476 68.1565 29.8882 68.6662 30.0992C68.5256 30.0406 68.385 29.982 68.2444 29.9234C68.6018 30.0757 68.9416 30.2515 69.2639 30.4683C69.3518 30.5269 69.4338 30.5855 69.5159 30.6441C69.7561 30.814 69.1291 30.3277 69.4631 30.6031C69.6096 30.7261 69.7502 30.855 69.885 30.9898C70.0198 31.1246 70.1487 31.2652 70.2717 31.4117C70.5471 31.7398 70.0666 31.1187 70.2307 31.3589C70.2834 31.4293 70.3362 31.5054 70.383 31.5757C70.6057 31.9097 70.7932 32.2613 70.9455 32.6246C70.887 32.4839 70.8284 32.3433 70.7698 32.2027C70.9807 32.7125 71.1213 33.2457 71.1975 33.7906C71.1741 33.6324 71.1565 33.48 71.133 33.3218C71.1799 33.5972 71.1975 33.8668 71.1975 34.1363C71.2034 35.0562 72.0002 35.9351 72.9553 35.8941C73.9045 35.8531 74.719 35.1207 74.7131 34.1363C74.7014 32.0914 73.9162 30.1285 72.51 28.6402C71.1037 27.1461 69.1409 26.3023 67.1077 26.1793C66.217 26.1265 65.3147 26.1675 64.4182 26.1675C62.4436 26.1675 60.4748 26.1675 58.5002 26.1675C56.0744 26.1675 53.6545 26.1675 51.2287 26.1675C49.0842 26.1675 46.9338 26.1675 44.7893 26.1675C43.6467 26.1675 42.51 26.1675 41.3674 26.1675C40.0784 26.1675 38.8655 26.4546 37.6995 26.9996C35.8655 27.855 34.5119 29.4605 33.7561 31.3062C33.0881 32.941 33.217 34.7398 33.217 36.4683C33.217 38.7711 33.217 41.0738 33.217 43.3765C33.217 45.1226 33.217 46.8746 33.217 48.6207C33.217 48.7144 33.217 48.8082 33.217 48.9019C33.217 49.8511 34.0198 50.6597 34.9748 50.6597C36.2346 50.6597 37.5002 50.6597 38.76 50.6597C41.7893 50.6597 44.8186 50.6597 47.8479 50.6597C51.4924 50.6597 55.1311 50.6597 58.7756 50.6597C61.9397 50.6597 65.1096 50.6597 68.2737 50.6597C69.8088 50.6597 71.344 50.689 72.8791 50.6597C72.9026 50.6597 72.9202 50.6597 72.9436 50.6597C73.8928 50.6597 74.7014 49.857 74.7014 48.9019C74.7014 47.2379 74.7014 45.5738 74.7014 43.9097C74.7014 41.2613 74.7014 38.607 74.7014 35.9586C74.7014 35.3492 74.7014 34.7457 74.7014 34.1363C74.7014 33.2164 73.8928 32.3375 72.9436 32.3785C72.0002 32.4195 71.1975 33.1519 71.1975 34.1363ZM72.5744 73.0425C71.3381 73.0425 70.1018 73.0425 68.8655 73.0425C65.9006 73.0425 62.9358 73.0425 59.9651 73.0425C56.3967 73.0425 52.8342 73.0425 49.2659 73.0425C46.1662 73.0425 43.0725 73.0425 39.9729 73.0425C38.4787 73.0425 36.9787 73.0074 35.4846 73.0425C35.4612 73.0425 35.4436 73.0425 35.4202 73.0425C35.8362 74.0445 36.2463 75.0406 36.6623 76.0425C38.3147 74.0562 39.967 72.0757 41.6252 70.0894C41.8596 69.8082 42.094 69.5269 42.3284 69.2457C41.9123 69.4156 41.5022 69.5914 41.0862 69.7613C41.9416 69.7613 42.7971 69.7613 43.6526 69.7613C45.7092 69.7613 47.76 69.7613 49.8166 69.7613C52.301 69.7613 54.7912 69.7613 57.2756 69.7613C59.426 69.7613 61.5764 69.7613 63.7268 69.7613C64.7698 69.7613 65.8186 69.7906 66.8616 69.7613C66.8791 69.7613 66.8909 69.7613 66.9084 69.7613C66.4924 69.5914 66.0823 69.4156 65.6662 69.2457C67.3186 71.232 68.9709 73.2125 70.6291 75.1988C70.8635 75.48 71.0979 75.7613 71.3323 76.0425C71.6077 76.3707 72.1643 76.5582 72.5744 76.5582C73.008 76.5582 73.5178 76.3648 73.8166 76.0425C74.1213 75.7086 74.3498 75.2691 74.3323 74.8004C74.3088 74.3082 74.133 73.9332 73.8166 73.5582C72.9202 72.4859 72.0295 71.4136 71.133 70.3414C70.4944 69.5738 69.8557 68.8121 69.217 68.0445C68.8713 67.6285 68.5432 67.1832 68.1682 66.7906C67.4944 66.0699 66.2522 66.2515 65.3557 66.2515C63.8616 66.2515 62.3674 66.2515 60.8674 66.2515C58.8401 66.2515 56.8127 66.2515 54.7854 66.2515C52.6995 66.2515 50.6135 66.2515 48.5276 66.2515C46.8518 66.2515 45.1819 66.2515 43.5061 66.2515C42.7151 66.2515 41.9182 66.2339 41.1272 66.2515C40.2717 66.2691 39.9143 66.6793 39.4573 67.2242C38.9182 67.8746 38.3791 68.5191 37.8401 69.1695C36.6916 70.5465 35.5432 71.9234 34.4006 73.3004C34.3244 73.3882 34.2541 73.4761 34.178 73.564C33.7151 74.1207 33.5217 74.7828 33.8147 75.4859C34.0901 76.1129 34.7229 76.5582 35.426 76.5582C36.6623 76.5582 37.8987 76.5582 39.135 76.5582C42.0998 76.5582 45.0647 76.5582 48.0354 76.5582C51.6037 76.5582 55.1662 76.5582 58.7346 76.5582C61.8342 76.5582 64.928 76.5582 68.0276 76.5582C69.5217 76.5582 71.0217 76.5816 72.5159 76.5582C72.5393 76.5582 72.5569 76.5582 72.5803 76.5582C73.5002 76.5582 74.3791 75.7496 74.3381 74.8004C74.2912 73.8453 73.5588 73.0425 72.5744 73.0425Z" fill="#E2E5EC"/>
<path d="M32.2734 81.3167C33.5625 79.7699 34.8516 78.223 36.1406 76.6761C36.3164 76.4652 36.4922 76.2542 36.668 76.0433C36.252 76.2132 35.8418 76.389 35.4258 76.5589C36.6621 76.5589 37.8984 76.5589 39.1348 76.5589C42.0996 76.5589 45.0645 76.5589 48.0352 76.5589C51.6035 76.5589 55.166 76.5589 58.7344 76.5589C61.834 76.5589 64.9277 76.5589 68.0273 76.5589C69.5215 76.5589 71.0215 76.5941 72.5156 76.5589C72.5391 76.5589 72.5566 76.5589 72.5801 76.5589C72.1641 76.389 71.7539 76.2132 71.3379 76.0433C72.6211 77.5726 73.8984 79.1136 75.1758 80.6488C75.3633 80.8714 75.5449 81.0941 75.7324 81.3167C76.0078 81.6449 76.5645 81.8324 76.9746 81.8324C77.4082 81.8324 77.918 81.639 78.2168 81.3167C78.5215 80.9827 78.75 80.5433 78.7324 80.0745C78.709 79.5824 78.5332 79.2074 78.2168 78.8324C77.0215 77.3968 75.8203 75.9554 74.625 74.5199C74.0449 73.8285 73.5938 73.0726 72.5625 73.0433C72.3457 73.0374 72.123 73.0433 71.9062 73.0433C70.6641 73.0433 69.4277 73.0433 68.1855 73.0433C66.1758 73.0433 64.166 73.0433 62.1562 73.0433C59.7422 73.0433 57.3281 73.0433 54.9141 73.0433C52.4531 73.0433 49.998 73.0433 47.5371 73.0433C45.3984 73.0433 43.2539 73.0433 41.1152 73.0433C39.6562 73.0433 38.1973 73.0433 36.7383 73.0433C36.375 73.0433 36.0176 73.0433 35.6543 73.0433C35.584 73.0433 35.5137 73.0433 35.4492 73.0433C34.9043 73.0667 34.4121 73.2952 34.0664 73.7113C32.7656 75.2757 31.4648 76.8343 30.1641 78.3988C30.041 78.5453 29.9238 78.6917 29.8008 78.8324C29.4844 79.1956 29.2734 79.5824 29.2734 80.0745C29.2734 80.5081 29.4668 81.0179 29.7891 81.3167C30.4395 81.9144 31.6465 82.0726 32.2734 81.3167ZM71.1973 34.137C71.1973 35.8011 71.1973 37.4652 71.1973 39.1292C71.1973 41.7777 71.1973 44.432 71.1973 47.0804C71.1973 47.6898 71.1973 48.2933 71.1973 48.9027C71.7832 48.3167 72.3691 47.7308 72.9551 47.1449C71.6953 47.1449 70.4297 47.1449 69.1699 47.1449C66.1406 47.1449 63.1113 47.1449 60.082 47.1449C56.4375 47.1449 52.7988 47.1449 49.1543 47.1449C45.9902 47.1449 42.8203 47.1449 39.6563 47.1449C38.1211 47.1449 36.5801 47.1097 35.0508 47.1449C35.0273 47.1449 35.0098 47.1449 34.9863 47.1449C35.5723 47.7308 36.1582 48.3167 36.7441 48.9027C36.7441 47.2386 36.7441 45.5745 36.7441 43.9105C36.7441 41.262 36.7441 38.6077 36.7441 35.9593C36.7441 35.3499 36.7441 34.7464 36.7441 34.137C36.1582 34.723 35.5723 35.3089 34.9863 35.8949C36.2461 35.8949 37.5117 35.8949 38.7715 35.8949C41.8008 35.8949 44.8301 35.8949 47.8594 35.8949C51.5039 35.8949 55.1426 35.8949 58.7871 35.8949C61.9512 35.8949 65.1211 35.8949 68.2852 35.8949C69.8203 35.8949 71.3555 35.9242 72.8906 35.8949C72.9141 35.8949 72.9316 35.8949 72.9551 35.8949C73.875 35.8949 74.7539 35.0863 74.7129 34.137C74.6719 33.182 73.9395 32.3792 72.9551 32.3792C71.6953 32.3792 70.4297 32.3792 69.1699 32.3792C66.1406 32.3792 63.1113 32.3792 60.082 32.3792C56.4375 32.3792 52.7988 32.3792 49.1543 32.3792C45.9902 32.3792 42.8203 32.3792 39.6563 32.3792C38.1211 32.3792 36.5859 32.3499 35.0508 32.3792C35.0273 32.3792 35.0098 32.3792 34.9863 32.3792C34.0371 32.3792 33.2285 33.182 33.2285 34.137C33.2285 35.8011 33.2285 37.4652 33.2285 39.1292C33.2285 41.7777 33.2285 44.432 33.2285 47.0804C33.2285 47.6898 33.2285 48.2933 33.2285 48.9027C33.2285 49.8519 34.0312 50.6605 34.9863 50.6605C36.2461 50.6605 37.5117 50.6605 38.7715 50.6605C41.8008 50.6605 44.8301 50.6605 47.8594 50.6605C51.5039 50.6605 55.1426 50.6605 58.7871 50.6605C61.9512 50.6605 65.1211 50.6605 68.2852 50.6605C69.8203 50.6605 71.3555 50.6898 72.8906 50.6605C72.9141 50.6605 72.9316 50.6605 72.9551 50.6605C73.9043 50.6605 74.7129 49.8577 74.7129 48.9027C74.7129 47.2386 74.7129 45.5745 74.7129 43.9105C74.7129 41.262 74.7129 38.6077 74.7129 35.9593C74.7129 35.3499 74.7129 34.7464 74.7129 34.137C74.7129 33.2171 73.9043 32.3382 72.9551 32.3792C72 32.4202 71.1973 33.1527 71.1973 34.137Z" fill="#E2E5EC"/>
<path d="M52.2128 34.1371C52.2128 35.7953 52.2128 37.4594 52.2128 39.1176C52.2128 41.7602 52.2128 44.4086 52.2128 47.0512C52.2128 47.6606 52.2128 48.2641 52.2128 48.8735C52.2128 49.7934 53.0214 50.6723 53.9706 50.6313C54.9257 50.5903 55.7284 49.8578 55.7284 48.8735C55.7284 47.2152 55.7284 45.5512 55.7284 43.893C55.7284 41.2504 55.7284 38.602 55.7284 35.9594C55.7284 35.35 55.7284 34.7465 55.7284 34.1371C55.7284 33.2172 54.9198 32.3383 53.9706 32.3793C53.0155 32.4203 52.2128 33.1527 52.2128 34.1371ZM46.0898 58.2485C46.0898 58.3832 46.078 58.518 46.0663 58.6528C46.0898 58.4945 46.1073 58.3422 46.1308 58.184C46.0898 58.4711 46.0194 58.7465 45.9081 59.0102C45.9667 58.8695 46.0253 58.7289 46.0839 58.5883C46.0019 58.7758 45.9081 58.9574 45.7909 59.1274C45.6913 59.2738 45.5448 59.3442 45.8847 59.016C45.8144 59.0863 45.7499 59.1684 45.6796 59.2387C45.662 59.2563 45.4687 59.4496 45.4569 59.4438C45.4628 59.4438 45.8847 59.1391 45.5683 59.35C45.3983 59.4672 45.2167 59.561 45.0292 59.643C45.1698 59.5844 45.3105 59.5258 45.4511 59.4672C45.1816 59.5785 44.912 59.6488 44.6249 59.6899C44.7831 59.6664 44.9355 59.6488 45.0937 59.6254C44.8241 59.6547 44.5546 59.6547 44.2851 59.6254C44.4433 59.6488 44.5956 59.6664 44.7538 59.6899C44.4667 59.6488 44.1913 59.5785 43.9276 59.4672C44.0683 59.5258 44.2089 59.5844 44.3495 59.643C44.162 59.561 43.9804 59.4672 43.8105 59.35C43.664 59.2504 43.5937 59.1039 43.9218 59.4438C43.8515 59.3735 43.7694 59.309 43.6991 59.2387C43.6816 59.2211 43.4882 59.0277 43.4941 59.016C43.4941 59.0219 43.7987 59.4438 43.5878 59.1274C43.4706 58.9574 43.3769 58.7758 43.2948 58.5883C43.3534 58.7289 43.412 58.8695 43.4706 59.0102C43.3593 58.7406 43.289 58.4711 43.248 58.184C43.2714 58.3422 43.289 58.4945 43.3124 58.6528C43.2831 58.3832 43.2831 58.1137 43.3124 57.8442C43.289 58.0024 43.2714 58.1547 43.248 58.3129C43.289 58.0258 43.3593 57.7504 43.4706 57.4867C43.412 57.6274 43.3534 57.768 43.2948 57.9086C43.3769 57.7211 43.4706 57.5395 43.5878 57.3695C43.6874 57.2231 43.8339 57.1528 43.4941 57.4809C43.5644 57.4106 43.6288 57.3285 43.6991 57.2582C43.7167 57.2406 43.9101 57.0473 43.9218 57.0531C43.9159 57.0531 43.4941 57.3578 43.8105 57.1469C43.9804 57.0297 44.162 56.936 44.3495 56.8539C44.2089 56.9125 44.0683 56.9711 43.9276 57.0297C44.1972 56.9184 44.4667 56.8481 44.7538 56.807C44.5956 56.8305 44.4433 56.8481 44.2851 56.8715C44.5546 56.8422 44.8241 56.8422 45.0937 56.8715C44.9355 56.8481 44.7831 56.8305 44.6249 56.807C44.912 56.8481 45.1874 56.9184 45.4511 57.0297C45.3105 56.9711 45.1698 56.9125 45.0292 56.8539C45.2167 56.936 45.3983 57.0297 45.5683 57.1469C45.7148 57.2465 45.7851 57.393 45.4569 57.0531C45.5273 57.1235 45.6093 57.1879 45.6796 57.2582C45.6972 57.2758 45.8905 57.4692 45.8847 57.4809C45.8847 57.475 45.58 57.0531 45.7909 57.3695C45.9081 57.5395 46.0019 57.7211 46.0839 57.9086C46.0253 57.768 45.9667 57.6274 45.9081 57.4867C46.0194 57.7563 46.0898 58.0258 46.1308 58.3129C46.1073 58.1547 46.0898 58.0024 46.0663 57.8442C46.078 57.9789 46.0898 58.1137 46.0898 58.2485C46.1015 59.1684 46.8925 60.0473 47.8476 60.0063C48.7909 59.9653 49.6171 59.2328 49.6054 58.2485C49.5761 56.1215 48.246 54.3285 46.2773 53.5961C44.4784 52.9281 42.2284 53.5199 41.0038 54.9965C40.2773 55.8637 39.8788 56.8422 39.7792 57.9672C39.6972 58.9223 39.9667 59.9653 40.4648 60.7797C40.9394 61.5649 41.6601 62.268 42.498 62.6547C43.5468 63.1352 44.619 63.2699 45.7558 63.0531C47.9999 62.6254 49.5819 60.4809 49.6112 58.2485C49.623 57.3285 48.7968 56.4496 47.8534 56.4906C46.8866 56.5317 46.1015 57.2641 46.0898 58.2485ZM64.7226 58.2485C64.7226 58.3832 64.7108 58.518 64.6991 58.6528C64.7226 58.4945 64.7401 58.3422 64.7636 58.184C64.7226 58.4711 64.6523 58.7465 64.5409 59.0102C64.5995 58.8695 64.6581 58.7289 64.7167 58.5883C64.6347 58.7758 64.5409 58.9574 64.4237 59.1274C64.3241 59.2738 64.1776 59.3442 64.5175 59.016C64.4472 59.0863 64.3827 59.1684 64.3124 59.2387C64.2948 59.2563 64.1015 59.4496 64.0898 59.4438C64.0956 59.4438 64.5175 59.1391 64.2011 59.35C64.0312 59.4672 63.8495 59.561 63.662 59.643C63.8026 59.5844 63.9433 59.5258 64.0839 59.4672C63.8144 59.5785 63.5448 59.6488 63.2577 59.6899C63.4159 59.6664 63.5683 59.6488 63.7265 59.6254C63.4569 59.6547 63.1874 59.6547 62.9179 59.6254C63.0761 59.6488 63.2284 59.6664 63.3866 59.6899C63.0995 59.6488 62.8241 59.5785 62.5605 59.4672C62.7011 59.5258 62.8417 59.5844 62.9823 59.643C62.7948 59.561 62.6132 59.4672 62.4433 59.35C62.2968 59.2504 62.2265 59.1039 62.5546 59.4438C62.4843 59.3735 62.4023 59.309 62.3319 59.2387C62.3144 59.2211 62.121 59.0277 62.1269 59.016C62.1269 59.0219 62.4315 59.4438 62.2206 59.1274C62.1034 58.9574 62.0097 58.7758 61.9276 58.5883C61.9862 58.7289 62.0448 58.8695 62.1034 59.0102C61.9921 58.7406 61.9218 58.4711 61.8808 58.184C61.9042 58.3422 61.9218 58.4945 61.9452 58.6528C61.9159 58.3832 61.9159 58.1137 61.9452 57.8442C61.9218 58.0024 61.9042 58.1547 61.8808 58.3129C61.9218 58.0258 61.9921 57.7504 62.1034 57.4867C62.0448 57.6274 61.9862 57.768 61.9276 57.9086C62.0097 57.7211 62.1034 57.5395 62.2206 57.3695C62.3202 57.2231 62.4667 57.1528 62.1269 57.4809C62.1972 57.4106 62.2616 57.3285 62.3319 57.2582C62.3495 57.2406 62.5429 57.0473 62.5546 57.0531C62.5487 57.0531 62.1269 57.3578 62.4433 57.1469C62.6132 57.0297 62.7948 56.936 62.9823 56.8539C62.8417 56.9125 62.7011 56.9711 62.5605 57.0297C62.83 56.9184 63.0995 56.8481 63.3866 56.807C63.2284 56.8305 63.0761 56.8481 62.9179 56.8715C63.1874 56.8422 63.4569 56.8422 63.7265 56.8715C63.5683 56.8481 63.4159 56.8305 63.2577 56.807C63.5448 56.8481 63.8202 56.9184 64.0839 57.0297C63.9433 56.9711 63.8026 56.9125 63.662 56.8539C63.8495 56.936 64.0312 57.0297 64.2011 57.1469C64.3476 57.2465 64.4179 57.393 64.0898 57.0531C64.1601 57.1235 64.2421 57.1879 64.3124 57.2582C64.33 57.2758 64.5233 57.4692 64.5175 57.4809C64.5175 57.475 64.2128 57.0531 64.4237 57.3695C64.5409 57.5395 64.6347 57.7211 64.7167 57.9086C64.6581 57.768 64.5995 57.6274 64.5409 57.4867C64.6523 57.7563 64.7226 58.0258 64.7636 58.3129C64.7401 58.1547 64.7226 58.0024 64.6991 57.8442C64.7108 57.9789 64.7226 58.1137 64.7226 58.2485C64.7343 59.1684 65.5253 60.0473 66.4804 60.0063C67.4237 59.9653 68.2499 59.2328 68.2382 58.2485C68.2089 56.1215 66.8788 54.3285 64.9101 53.5961C63.1112 52.9281 60.8612 53.5199 59.6366 54.9965C58.9101 55.8637 58.5116 56.8422 58.412 57.9672C58.33 58.9223 58.5995 59.9653 59.0976 60.7797C59.5722 61.5649 60.2929 62.268 61.1308 62.6547C62.1796 63.1352 63.2519 63.2699 64.3886 63.0531C66.6327 62.6254 68.2148 60.4809 68.244 58.2485C68.2558 57.3285 67.4296 56.4496 66.4862 56.4906C65.5194 56.5317 64.7343 57.2641 64.7226 58.2485Z" fill="#E2E5EC"/>
</svg>
