<svg width="108" height="108" viewBox="0 0 108 108" fill="none" xmlns="http://www.w3.org/2000/svg">
<rect width="108" height="108" rx="16" fill="#1F2022"/>
<path d="M35.75 70.875V70.625L35.55 70.475C34.4478 69.6483 33.5531 68.5764 32.937 67.344C32.3208 66.1117 32 64.7528 32 63.375V37.125C32 34.7712 32.935 32.5138 34.5994 30.8494C36.2638 29.185 38.5212 28.25 40.875 28.25H67.125C69.4788 28.25 71.7362 29.185 73.4006 30.8494C75.065 32.5138 76 34.7712 76 37.125V63.375C76 64.7528 75.6792 66.1117 75.063 67.344C74.4469 68.5764 73.5522 69.6483 72.45 70.475L72.25 70.625V70.875V74.625C72.25 75.9842 71.71 77.2878 70.7489 78.2489C69.7878 79.21 68.4842 79.75 67.125 79.75C65.7658 79.75 64.4622 79.21 63.5011 78.2489C62.54 77.2878 62 75.9842 62 74.625V72.75V72.25H61.5H46.5H46V72.75V74.625C46 75.9842 45.46 77.2878 44.4989 78.2489C43.5378 79.21 42.2342 79.75 40.875 79.75C39.5158 79.75 38.2122 79.21 37.2511 78.2489C36.29 77.2878 35.75 75.9842 35.75 74.625V70.875ZM72.4478 37.5234L73.25 38.1318V37.125C73.25 35.5005 72.6047 33.9426 71.456 32.794C70.3074 31.6453 68.7495 31 67.125 31H40.875C39.2505 31 37.6926 31.6453 36.544 32.794C35.3953 33.9426 34.75 35.5005 34.75 37.125V38.1318L35.5522 37.5234C37.0821 36.3629 38.9521 35.7396 40.8723 35.75V35.75H40.875L67.125 35.75L67.1277 35.75C69.0479 35.7396 70.9179 36.3629 72.4478 37.5234ZM39 72.25H38.5V72.75V74.625C38.5 75.2549 38.7502 75.859 39.1956 76.3044C39.641 76.7498 40.2451 77 40.875 77C41.5049 77 42.109 76.7498 42.5544 76.3044C42.9998 75.859 43.25 75.2549 43.25 74.625V72.75V72.25H42.75H39ZM69.5 72.75V72.25H69H65.25H64.75V72.75V74.625C64.75 75.2549 65.0002 75.859 65.4456 76.3044C65.891 76.7498 66.4951 77 67.125 77C67.7549 77 68.359 76.7498 68.8044 76.3044C69.2498 75.859 69.5 75.2549 69.5 74.625V72.75ZM35.5522 51.7266L34.75 51.1182V52.125V63.375C34.75 64.9995 35.3953 66.5574 36.544 67.706C37.6926 68.8547 39.2505 69.5 40.875 69.5H67.125C68.7495 69.5 70.3074 68.8547 71.456 67.706C72.6047 66.5574 73.25 64.9995 73.25 63.375V52.125V51.1182L72.4478 51.7266C70.9179 52.8871 69.0479 53.5104 67.1277 53.5H67.125L40.875 53.5L40.8723 53.5C38.9521 53.5104 37.0821 52.8871 35.5522 51.7266ZM71.456 48.956C72.6047 47.8074 73.25 46.2495 73.25 44.625C73.25 43.0005 72.6047 41.4426 71.456 40.294C70.3074 39.1453 68.7495 38.5 67.125 38.5H40.875C39.2505 38.5 37.6926 39.1453 36.544 40.294C35.3953 41.4426 34.75 43.0005 34.75 44.625C34.75 46.2495 35.3953 47.8074 36.544 48.956C37.6926 50.1047 39.2505 50.75 40.875 50.75H67.125C68.7495 50.75 70.3074 50.1047 71.456 48.956Z" fill="#E2E5EC" stroke="#1F2022"/>
<path d="M65.25 65.25C67.3211 65.25 69 63.5711 69 61.5C69 59.4289 67.3211 57.75 65.25 57.75C63.1789 57.75 61.5 59.4289 61.5 61.5C61.5 63.5711 63.1789 65.25 65.25 65.25Z" fill="#E2E5EC"/>
<path d="M42.75 65.25C44.8211 65.25 46.5 63.5711 46.5 61.5C46.5 59.4289 44.8211 57.75 42.75 57.75C40.6789 57.75 39 59.4289 39 61.5C39 63.5711 40.6789 65.25 42.75 65.25Z" fill="#E2E5EC"/>
</svg>
