<svg width="108" height="108" viewBox="0 0 108 108" fill="none" xmlns="http://www.w3.org/2000/svg">
<rect width="108" height="108" rx="16" fill="#1F2022"/>
<g clip-path="url(#clip0_9_5444)">
<path d="M76.7532 65.0348C76.2469 65.0348 75.8438 64.6316 75.8438 64.1254C75.8438 57.5629 70.5001 52.2191 63.9376 52.2191H45.9563C44.6719 52.2191 43.4251 51.8629 42.3469 51.1879C41.9251 50.9254 41.7938 50.3629 42.0563 49.9316C42.3188 49.5004 42.8813 49.3691 43.3126 49.641C44.1094 50.1379 45.0188 50.391 45.9657 50.391H63.9376C71.5032 50.391 77.6626 56.5504 77.6626 64.116C77.6626 64.6223 77.2501 65.0348 76.7532 65.0348ZM43.3313 40.9223C43.0032 40.9223 42.6751 40.7441 42.5157 40.4254C42.2907 39.9754 42.4688 39.4316 42.9188 39.2066C43.9501 38.691 45.0844 38.4098 46.2094 38.4098H63.5344C64.0407 38.4098 64.4438 38.8129 64.4438 39.3191C64.4438 39.8254 64.0407 40.2285 63.5344 40.2285H46.2094C45.3563 40.2285 44.5313 40.4254 43.7438 40.8285C43.6126 40.8848 43.4719 40.9223 43.3313 40.9223ZM34.9126 37.6035C34.7157 37.6035 34.5188 37.5379 34.3594 37.416C33.9657 37.1066 33.8907 36.5348 34.2001 36.141C37.0407 32.4848 41.3344 30.3848 45.9751 30.3848H60.2438C60.7501 30.3848 61.1532 30.7879 61.1532 31.2941C61.1532 31.8004 60.7501 32.2035 60.2438 32.2035H45.9657C41.8969 32.2035 38.1282 34.0504 35.6251 37.2566C35.4563 37.4816 35.1844 37.6035 34.9126 37.6035Z" fill="#E2E5EC"/>
<path d="M68.6154 64.9781C68.156 64.9781 67.781 64.6406 67.7154 64.2C67.2279 61.9031 65.1842 60.2344 62.831 60.2344H45.9654C40.8842 60.2344 36.1967 57.6844 33.431 53.4187C33.1592 52.9969 33.281 52.4344 33.7029 52.1625C34.1248 51.8906 34.6873 52.0125 34.9592 52.4344C37.3873 56.1844 41.5029 58.425 45.9654 58.425H62.8217C66.056 58.425 68.8592 60.7219 69.4967 63.8906C69.506 63.9469 69.5154 64.0125 69.5154 64.0687C69.5248 64.5656 69.1217 64.9781 68.6154 64.9781Z" fill="#E2E5EC"/>
<path d="M72.6375 84.0004C72.3281 84.0004 72.0468 83.841 71.8781 83.5879L65.8875 74.4098C64.2375 71.8879 64.1156 68.8035 65.55 66.1598C66.9843 63.516 69.6375 61.9316 72.6468 61.9316C75.6562 61.9316 78.3093 63.516 79.7437 66.1598C81.1781 68.8035 81.0468 71.8879 79.4062 74.4098L73.4156 83.5879C73.2375 83.841 72.9468 84.0004 72.6375 84.0004ZM72.6375 63.7504C70.3031 63.7504 68.25 64.9785 67.1437 67.0223C66.0375 69.0754 66.1312 71.4566 67.4062 73.416L72.6375 81.4223L77.8687 73.416C79.1437 71.466 79.2375 69.0754 78.1312 67.0223C77.025 64.9785 74.9718 63.7504 72.6375 63.7504Z" fill="#E2E5EC"/>
<path d="M72.6379 73.875C70.5847 73.875 68.9254 72.2063 68.9254 70.1625C68.9254 68.1188 70.5941 66.45 72.6379 66.45C74.6816 66.45 76.3504 68.1188 76.3504 70.1625C76.3504 72.2063 74.691 73.875 72.6379 73.875ZM72.6379 68.2594C71.5879 68.2594 70.7441 69.1125 70.7441 70.1531C70.7441 71.2031 71.5972 72.0469 72.6379 72.0469C73.6879 72.0469 74.5316 71.1937 74.5316 70.1531C74.541 69.1125 73.6879 68.2594 72.6379 68.2594ZM67.3504 46.0688C67.041 46.0688 66.7597 45.9094 66.591 45.6562L60.6004 36.4781C58.9504 33.9563 58.8285 30.8719 60.2629 28.2281C61.6879 25.5844 64.341 24 67.3504 24C70.3597 24 73.0129 25.5844 74.4472 28.2281C75.8816 30.8719 75.7504 33.9563 74.1097 36.4781L68.1191 45.6562C67.941 45.9094 67.6597 46.0688 67.3504 46.0688ZM67.3504 25.8188C65.016 25.8188 62.9629 27.0469 61.8566 29.0906C60.7504 31.1437 60.8441 33.525 62.1191 35.4844L67.3504 43.4906L72.5816 35.4844C73.8566 33.5344 73.9504 31.1437 72.8441 29.0906C71.7285 27.0375 69.6754 25.8188 67.3504 25.8188Z" fill="#E2E5EC"/>
<path d="M67.3502 35.9436C65.2971 35.9436 63.6377 34.2748 63.6377 32.2311C63.6377 30.1779 65.3064 28.5186 67.3502 28.5186C69.3939 28.5186 71.0627 30.1873 71.0627 32.2311C71.0627 34.2748 69.3939 35.9436 67.3502 35.9436ZM67.3502 30.3279C66.3002 30.3279 65.4564 31.1811 65.4564 32.2311C65.4564 33.2811 66.3096 34.1248 67.3502 34.1248C68.3908 34.1248 69.2439 33.2717 69.2439 32.2311C69.2439 31.1811 68.3908 30.3279 67.3502 30.3279Z" fill="#E2E5EC"/>
<path d="M36.5434 54.1688C31.434 54.1688 27.2715 50.0063 27.2715 44.8969C27.2715 39.7875 31.434 35.625 36.5434 35.625C41.6527 35.625 45.8152 39.7875 45.8152 44.8969C45.8152 50.0063 41.6621 54.1688 36.5434 54.1688ZM36.5434 37.4438C32.4371 37.4438 29.0902 40.7906 29.0902 44.8969C29.0902 49.0031 32.4371 52.35 36.5434 52.35C40.6496 52.35 43.9965 49.0031 43.9965 44.8969C43.9965 40.7906 40.659 37.4438 36.5434 37.4438Z" fill="#E2E5EC"/>
<path d="M33.2432 49.1158C33.0088 49.1158 32.7744 49.0314 32.5963 48.8533C32.24 48.4971 32.24 47.9252 32.5963 47.5689L39.2057 40.9596C39.5619 40.6033 40.1338 40.6033 40.49 40.9596C40.8463 41.3158 40.8463 41.8877 40.49 42.2439L33.8807 48.8533C33.7025 49.0221 33.4775 49.1158 33.2432 49.1158Z" fill="#E2E5EC"/>
<path d="M39.8525 49.1158C39.6182 49.1158 39.3838 49.0314 39.2057 48.8533L32.5963 42.2439C32.24 41.8877 32.24 41.3158 32.5963 40.9596C32.9525 40.6033 33.5244 40.6033 33.8807 40.9596L40.49 47.5689C40.8463 47.9252 40.8463 48.4971 40.49 48.8533C40.3119 49.0221 40.0869 49.1158 39.8525 49.1158Z" fill="#E2E5EC"/>
</g>
<defs>
<clipPath id="clip0_9_5444">
<rect width="60" height="60" fill="white" transform="translate(24 24)"/>
</clipPath>
</defs>
</svg>
