<svg width="28" height="28" viewBox="0 0 28 28" fill="none" xmlns="http://www.w3.org/2000/svg">
<path fill-rule="evenodd" clip-rule="evenodd" d="M2.3335 14.0002C2.3335 7.55764 7.55635 2.3335 14.0002 2.3335C20.4427 2.3335 25.6668 7.55758 25.6668 14.0002C25.6668 20.4427 20.4427 25.6668 14.0002 25.6668C7.55635 25.6668 2.3335 20.4427 2.3335 14.0002ZM14.0002 4.0835C8.52297 4.0835 4.0835 8.52402 4.0835 14.0002C4.0835 19.4763 8.52297 23.9168 14.0002 23.9168C19.4762 23.9168 23.9168 19.4762 23.9168 14.0002C23.9168 8.52408 19.4762 4.0835 14.0002 4.0835Z" fill="#515151"/>
<path fill-rule="evenodd" clip-rule="evenodd" d="M9.33281 11.6939C9.67526 11.3529 10.2293 11.3541 10.5702 11.6966L13.793 14.9333C13.907 15.0478 14.0924 15.0478 14.2064 14.9333L17.4291 11.6966C17.7701 11.3541 18.3241 11.3529 18.6666 11.6939C19.009 12.0349 19.0102 12.5889 18.6692 12.9313L15.4465 16.168C14.6485 16.9695 13.3509 16.9695 12.5529 16.168L9.33014 12.9313C8.98917 12.5889 8.99037 12.0349 9.33281 11.6939Z" fill="#515151"/>
</svg>
