<svg width="56" height="68" viewBox="0 0 56 68" fill="none" xmlns="http://www.w3.org/2000/svg">
<path fill-rule="evenodd" clip-rule="evenodd" d="M33.0039 56.4526C33.0053 56.455 33.0025 56.4577 33.0002 56.4562L32.0587 55.8483C25.9348 51.8918 20.4125 47.0848 15.6599 41.5735C10.5263 35.6621 6.4111 28.9486 3.48051 21.7044C3.40327 21.5203 3.48465 21.306 3.66298 21.2161L3.9572 21.0677C10.4029 17.7643 17.2869 15.3842 24.4044 13.9983C32.0653 12.4826 39.9222 12.2272 47.6616 13.2399C48.2898 13.3221 48.7426 13.8758 48.7038 14.5081C48.3258 21.5786 46.9563 28.5621 44.6349 35.2564C42.0059 42.9294 38.072 50.0976 33.0041 56.4496C33.0034 56.4505 33.0033 56.4517 33.0039 56.4526ZM36.7873 51.1467C36.7869 51.1467 36.7866 51.1466 36.7863 51.1465L35.8995 50.8046C30.1284 48.5902 24.7066 45.5656 19.7995 41.8228C14.507 37.8206 9.91699 32.9766 6.21517 27.4868C6.11877 27.3464 6.14687 27.1548 6.28024 27.0489C6.35287 26.9911 6.42605 26.9337 6.50027 26.8773C11.256 23.0254 16.5367 19.8619 22.1852 17.4809C28.2584 14.8882 34.7167 13.304 41.3023 12.7896C41.844 12.7473 42.3258 13.1295 42.402 13.6675C43.3331 19.5922 43.4268 25.6171 42.6803 31.5676C41.8569 38.3798 39.8646 45.0015 36.7898 51.1451C36.7893 51.1461 36.7883 51.1467 36.7873 51.1467Z" fill="white"/>
<path fill-rule="evenodd" clip-rule="evenodd" d="M20.5384 20.9591H27.7251C29.6934 21.4417 30.8794 22.4704 31.404 23.6577C31.6802 24.293 31.7871 24.9883 31.7142 25.6766C31.6364 26.3925 31.3903 27.0801 30.9958 27.6841C30.1359 29.0051 28.5439 30.0043 26.3795 30.0406C25.1159 29.814 24.4796 31.1622 25.5493 32.1909L32.752 38.8298H20.5384C20.3613 38.8292 20.1917 38.759 20.0665 38.6347C19.9413 38.5103 19.8707 38.3418 19.8701 38.1659V21.6253C19.8701 21.449 19.9404 21.2799 20.0657 21.155C20.191 21.0302 20.3609 20.9597 20.5384 20.9591ZM32.5832 20.9591H37.6009C37.7772 20.9603 37.9459 21.0304 38.0705 21.1542C38.1951 21.278 38.2657 21.4456 38.2669 21.6207V38.1613C38.2663 38.3368 38.196 38.505 38.0713 38.6293C37.9466 38.7536 37.7776 38.824 37.6009 38.8252H36.4309L29.1073 32.0753C30.7503 31.5385 32.1589 30.459 33.0986 29.0164C33.7053 28.0826 34.0819 27.0199 34.198 25.9145C34.2929 25.0219 34.1986 24.1195 33.9213 23.2652C33.644 22.411 33.1897 21.6239 32.5877 20.9546L32.5832 20.9591Z" fill="white"/>
<path d="M20.5384 20.9591H27.7251C29.6934 21.4417 30.8794 22.4704 31.404 23.6577C31.6802 24.293 31.7871 24.9883 31.7142 25.6766C31.6364 26.3925 31.3903 27.0801 30.9958 27.6841C30.1359 29.0051 28.5439 30.0043 26.3795 30.0406C25.1159 29.814 24.4796 31.1622 25.5493 32.1909L32.752 38.8298H20.5384C20.3613 38.8292 20.1917 38.759 20.0665 38.6347C19.9413 38.5103 19.8707 38.3418 19.8701 38.1659V21.6253C19.8701 21.449 19.9404 21.2799 20.0657 21.155C20.191 21.0302 20.3609 20.9597 20.5384 20.9591ZM32.5832 20.9591H37.6009C37.7772 20.9603 37.9459 21.0304 38.0705 21.1542C38.1951 21.278 38.2657 21.4456 38.2669 21.6207V38.1613C38.2663 38.3368 38.196 38.505 38.0713 38.6293C37.9466 38.7536 37.7776 38.824 37.6009 38.8252H36.4309L29.1073 32.0753C30.7503 31.5385 32.1589 30.459 33.0986 29.0164C33.7053 28.0826 34.0819 27.0199 34.198 25.9145C34.2929 25.0219 34.1986 24.1195 33.9213 23.2652C33.644 22.411 33.1897 21.6239 32.5877 20.9546L32.5832 20.9591Z" fill="#2475EE"/>
</svg>
