<svg width="70" height="86" viewBox="0 0 70 86" fill="none" xmlns="http://www.w3.org/2000/svg">
<path fill-rule="evenodd" clip-rule="evenodd" d="M41.0227 70.908C41.0245 70.911 41.0211 70.9143 41.0182 70.9125L39.8479 70.1569C32.2359 65.239 25.3718 59.2639 19.4643 52.4135C13.0833 45.0656 7.96815 36.7209 4.32547 27.7164C4.22945 27.4874 4.33061 27.2211 4.55227 27.1093L4.91798 26.925C12.9299 22.8188 21.4867 19.8603 30.3337 18.1377C39.8561 16.2537 49.6221 15.9362 59.2422 17.195C60.023 17.2972 60.5859 17.9854 60.5376 18.7714C60.0677 27.56 58.3654 36.2403 55.48 44.5613C52.2122 54.0988 47.3223 63.0089 41.023 70.9043C41.0221 70.9053 41.022 70.9068 41.0227 70.908ZM45.7255 64.3128C45.725 64.3128 45.7246 64.3128 45.7242 64.3126L44.622 63.8876C37.4486 61.1352 30.7093 57.3755 24.6098 52.7233C18.0313 47.7486 12.3259 41.7276 7.72462 34.9039C7.6048 34.7293 7.63972 34.4912 7.8055 34.3594C7.89578 34.2877 7.98674 34.2163 8.07899 34.1462C13.9903 29.3584 20.5541 25.4261 27.5752 22.4666C35.1241 19.2438 43.1518 17.2747 51.3376 16.6353C52.0109 16.5827 52.6097 17.0578 52.7046 17.7265C53.8619 25.0909 53.9783 32.5798 53.0504 39.9762C52.027 48.4437 49.5505 56.6744 45.7286 64.3109C45.728 64.3121 45.7268 64.3128 45.7255 64.3128Z" fill="white"/>
<path fill-rule="evenodd" clip-rule="evenodd" d="M25.5291 26.7898H34.4622C36.9088 27.3897 38.383 28.6684 39.035 30.1442C39.3784 30.9339 39.5112 31.7981 39.4206 32.6536C39.3239 33.5434 39.018 34.3982 38.5276 35.1489C37.4588 36.7909 35.4799 38.0329 32.7895 38.078C31.219 37.7964 30.428 39.4721 31.7576 40.7508L40.7105 49.0029H25.5291C25.3091 49.0021 25.0982 48.9149 24.9426 48.7603C24.787 48.6057 24.6992 48.3963 24.6985 48.1777V27.6178C24.6985 27.3987 24.7859 27.1885 24.9416 27.0333C25.0973 26.8781 25.3086 26.7906 25.5291 26.7898ZM40.5007 26.7898H46.7377C46.9568 26.7913 47.1665 26.8784 47.3214 27.0323C47.4763 27.1862 47.564 27.3945 47.5655 27.6122V48.172C47.5648 48.3902 47.4774 48.5992 47.3224 48.7537C47.1674 48.9082 46.9573 48.9957 46.7377 48.9972H45.2833L36.1802 40.6071C38.2225 39.9399 39.9733 38.5981 41.1414 36.805C41.8955 35.6442 42.3636 34.3233 42.5079 32.9493C42.6258 31.8398 42.5087 30.7181 42.164 29.6563C41.8193 28.5945 41.2546 27.6161 40.5064 26.7842L40.5007 26.7898Z" fill="white"/>
<path d="M25.5291 26.7898H34.4622C36.9088 27.3897 38.383 28.6684 39.035 30.1442C39.3784 30.9339 39.5112 31.7981 39.4206 32.6536C39.3239 33.5434 39.018 34.3982 38.5276 35.1489C37.4588 36.7909 35.4799 38.0329 32.7895 38.078C31.219 37.7964 30.428 39.4721 31.7576 40.7508L40.7105 49.0029H25.5291C25.3091 49.0021 25.0982 48.9149 24.9426 48.7603C24.787 48.6057 24.6992 48.3963 24.6985 48.1777V27.6178C24.6985 27.3987 24.7859 27.1885 24.9416 27.0333C25.0973 26.8781 25.3086 26.7906 25.5291 26.7898ZM40.5007 26.7898H46.7377C46.9568 26.7913 47.1665 26.8784 47.3214 27.0323C47.4763 27.1862 47.564 27.3945 47.5655 27.6122V48.172C47.5648 48.3902 47.4774 48.5992 47.3224 48.7537C47.1674 48.9082 46.9573 48.9957 46.7377 48.9972H45.2833L36.1802 40.6071C38.2225 39.9399 39.9733 38.5981 41.1414 36.805C41.8955 35.6442 42.3636 34.3233 42.5079 32.9493C42.6258 31.8398 42.5087 30.7181 42.164 29.6563C41.8193 28.5945 41.2546 27.6161 40.5064 26.7842L40.5007 26.7898Z" fill="#2475EE"/>
</svg>
