<svg width="49" height="48" viewBox="0 0 49 48" fill="none" xmlns="http://www.w3.org/2000/svg">
<path opacity="0.1" fill-rule="evenodd" clip-rule="evenodd" d="M24.7101 46.7384C37.3405 46.7384 47.5795 36.4994 47.5795 23.8691C47.5795 11.2387 37.3405 0.999756 24.7101 0.999756C12.0798 0.999756 1.84082 11.2387 1.84082 23.8691C1.84082 36.4994 12.0798 46.7384 24.7101 46.7384Z" stroke="white" stroke-width="1.96023"/>
<path d="M19.4617 19.252C20.5324 19.252 21.4004 18.384 21.4004 17.3132C21.4004 16.2425 20.5324 15.3745 19.4617 15.3745C18.3909 15.3745 17.5229 16.2425 17.5229 17.3132C17.5229 18.384 18.3909 19.252 19.4617 19.252Z" fill="white"/>
<path d="M21.0773 20.5469H17.8461C17.6677 20.5469 17.5229 20.6916 17.5229 20.87V30.5636C17.5229 30.742 17.6677 30.8868 17.8461 30.8868H21.0773C21.2556 30.8868 21.4004 30.742 21.4004 30.5636V20.87C21.4004 20.6916 21.2556 20.5469 21.0773 20.5469Z" fill="white"/>
<path d="M30.7068 20.0091C29.3258 19.5361 27.5984 19.9516 26.5624 20.6967C26.5269 20.5578 26.4002 20.4544 26.2497 20.4544H23.0184C22.8401 20.4544 22.6953 20.5991 22.6953 20.7775V30.4712C22.6953 30.6495 22.8401 30.7943 23.0184 30.7943H26.2497C26.428 30.7943 26.5728 30.6495 26.5728 30.4712V23.5047C27.0949 23.0549 27.7677 22.9114 28.3183 23.1453C28.8521 23.3709 29.1577 23.9215 29.1577 24.655V30.4712C29.1577 30.6495 29.3025 30.7943 29.4809 30.7943H32.7121C32.8904 30.7943 33.0352 30.6495 33.0352 30.4712V24.0042C32.9984 21.3488 31.7492 20.3659 30.7068 20.0091Z" fill="white"/>
</svg>
