<svg width="108" height="108" viewBox="0 0 108 108" fill="none" xmlns="http://www.w3.org/2000/svg">
<rect width="108" height="108" rx="16" fill="#1F2022"/>
<path d="M42.7945 28.2725H42.794C42.5597 28.2722 42.3292 28.3319 42.1244 28.4458C41.9196 28.5597 41.7473 28.724 41.6239 28.9232C41.5005 29.1224 41.43 29.3498 41.4192 29.5839C41.4083 29.818 41.4575 30.051 41.562 30.2607L41.5626 30.2617L49.4975 46.278L49.854 46.9975L49.0511 47L36.9198 47.0375L36.6481 47.0383L36.4995 46.8107L34.5833 43.8745L34.5818 43.8722C34.4578 43.6799 34.2877 43.5215 34.0869 43.4116C33.8865 43.3017 33.6619 43.2436 33.4333 43.2425H25.9345H25.934C25.7081 43.2422 25.4856 43.2977 25.2862 43.4039C25.0869 43.51 24.9167 43.6637 24.7908 43.8513C24.665 44.0389 24.5873 44.2546 24.5646 44.4794C24.5419 44.7041 24.5749 44.931 24.6608 45.14L24.6613 45.1413L28.1901 53.8038L28.2669 53.9923L28.1902 54.1809L24.662 62.8532C24.6619 62.8534 24.6618 62.8537 24.6617 62.8539C24.5778 63.0623 24.5462 63.288 24.5697 63.5114C24.5933 63.735 24.6713 63.9494 24.797 64.1359C24.9226 64.3224 25.0921 64.4752 25.2906 64.5809C25.489 64.6867 25.7104 64.7421 25.9352 64.7425H33.4345H33.4349C33.6628 64.7427 33.8871 64.6862 34.0878 64.5782C34.2884 64.4702 34.4591 64.314 34.5844 64.1237L36.4968 61.2176L36.645 60.9925H36.9145H49.087H49.89L49.5357 61.7131L41.6498 77.7512L42.7945 28.2725ZM42.7945 28.2725H50.2941C50.5156 28.2729 50.7338 28.3268 50.93 28.4297C51.1263 28.5327 51.2948 28.6816 51.4212 28.8637L51.422 28.8649L63.9283 46.7787L64.0775 46.9925H64.3383H76.4358C80.2846 46.9925 83.4358 50.1436 83.4358 53.9925C83.4358 57.8416 80.2843 60.9925 76.4433 60.9925H76.4425H76.4365H76.4358H64.4695H64.2092L64.0599 61.2057L51.5049 79.142L51.5044 79.1427M42.7945 28.2725L51.5044 79.1427M51.5044 79.1427C51.3777 79.3243 51.2091 79.4727 51.0128 79.5752C50.8165 79.6776 50.5984 79.7311 50.377 79.7312C50.377 79.7312 50.3769 79.7312 50.3769 79.7312L42.879 79.7312C42.8787 79.7312 42.8784 79.7312 42.8781 79.7312C42.6455 79.7301 42.4169 79.67 42.2138 79.5565C42.0104 79.4429 41.8392 79.2794 41.7163 79.0815C41.5934 78.8835 41.5229 78.6576 41.5112 78.4249C41.4996 78.1925 41.5472 77.9609 41.6495 77.7518L51.5044 79.1427ZM45.0112 31.0225H45.817H49.3195H49.5803L49.7295 31.2363L62.2382 49.1595C62.2385 49.1598 62.2388 49.1602 62.2391 49.1606C62.3657 49.3399 62.5334 49.4863 62.7283 49.5876C62.9235 49.689 63.1402 49.7421 63.3602 49.7425H76.4395C78.8259 49.7425 80.6879 51.6034 80.6895 53.9893C80.6965 54.5492 80.5915 55.1048 80.3806 55.6235C80.1693 56.1433 79.8561 56.6155 79.4593 57.0123C79.0626 57.409 78.5904 57.7223 78.0706 57.9336C77.5518 58.1444 76.9962 58.2494 76.4363 58.2425H63.4923C63.272 58.2439 63.0553 58.2983 62.8604 58.401C62.6651 58.5039 62.4974 58.6523 62.3716 58.8337L62.3703 58.8355L49.8153 76.7643L49.666 76.9775H49.4058H45.892H45.0889L45.4433 76.2568L53.3258 60.2293L53.326 60.229C53.4294 60.0192 53.4775 59.7866 53.4659 59.5531C53.4543 59.3195 53.3834 59.0928 53.2598 58.8944C53.1362 58.6959 52.964 58.5322 52.7596 58.4188C52.5551 58.3054 52.3251 58.246 52.0913 58.2462H52.0908H35.9029C35.6745 58.2466 35.4499 58.3039 35.2492 58.4129C35.0485 58.5219 34.8781 58.6791 34.7534 58.8705L34.7519 58.8728L32.8394 61.7716L32.6912 61.9962H32.422H28.7245H27.9807L28.2615 61.3074L31.0289 54.5202C31.0289 54.5202 31.0289 54.5202 31.0289 54.5201C31.1642 54.1878 31.1642 53.8158 31.0289 53.4835L31.0289 53.4834L28.2614 46.6809L27.9813 45.9925H28.7245H32.4145H32.6854L32.8333 46.2193L34.7533 49.1631L34.7534 49.1632C34.8786 49.3553 35.0499 49.5131 35.2516 49.6221C35.4532 49.731 35.6788 49.7879 35.9079 49.7875L45.0112 31.0225ZM45.0112 31.0225L45.369 31.7445L53.303 47.755C53.3031 47.7552 53.3033 47.7555 53.3034 47.7557C53.4057 47.9649 53.4533 48.1967 53.4415 48.4294C53.4298 48.6623 53.3589 48.8884 53.2357 49.0864C53.1125 49.2844 52.941 49.4478 52.7372 49.5613C52.5335 49.6747 52.3042 49.7345 52.071 49.735L52.0704 49.735L35.9084 49.7875L45.0112 31.0225Z" fill="#E2E5EC" stroke="#1F2022"/>
</svg>
