<svg width="108" height="108" viewBox="0 0 108 108" fill="none" xmlns="http://www.w3.org/2000/svg">
<rect width="108" height="108" rx="16" fill="#1F2022"></rect>
<g clip-path="url('#clip0_9_5439')">
<path d="M51.3633 50.25H43.5117C43.2786 50.25 43.0551 50.3426 42.8902 50.5074C42.7254 50.6723 42.6328 50.8958 42.6328 51.1289V58.9805C42.6328 59.2136 42.7254 59.4371 42.8902 59.602C43.0551 59.7668 43.2786 59.8594 43.5117 59.8594H51.3633C51.5964 59.8594 51.8199 59.7668 51.9848 59.602C52.1496 59.4371 52.2422 59.2136 52.2422 58.9805V51.1289C52.2422 50.8958 52.1496 50.6723 51.9848 50.5074C51.8199 50.3426 51.5964 50.25 51.3633 50.25ZM50.4844 58.1016H44.3906V52.0078H50.4844V58.1016ZM79.6055 42.8672H70.6406V38.9414C70.6393 37.7763 70.1759 36.6593 69.3521 35.8354C68.5282 35.0116 67.4112 34.5482 66.2461 34.5469H65.3672V28.3945C65.3659 27.2294 64.9025 26.1124 64.0786 25.2886C63.2548 24.4647 62.1378 24.0013 60.9727 24H47.0273C45.8622 24.0013 44.7452 24.4647 43.9214 25.2886C43.0975 26.1124 42.6341 27.2294 42.6328 28.3945V34.5469H41.7539C40.5888 34.5482 39.4718 35.0116 38.6479 35.8354C37.8241 36.6593 37.3607 37.7763 37.3594 38.9414V42.8672H28.3945C27.2294 42.8685 26.1124 43.3319 25.2886 44.1558C24.4647 44.9796 24.0013 46.0966 24 47.2617V83.1211C24 83.3542 24.0926 83.5777 24.2574 83.7426C24.4223 83.9074 24.6458 84 24.8789 84H83.1211C83.3542 84 83.5777 83.9074 83.7426 83.7426C83.9074 83.5777 84 83.3542 84 83.1211V47.2617C83.9987 46.0966 83.5353 44.9796 82.7114 44.1558C81.8876 43.3319 80.7706 42.8685 79.6055 42.8672ZM37.3594 72.1641H31.2656V66.0703H37.3594V72.1641ZM37.3594 58.1016H31.2656V52.0078H37.3594V58.1016ZM37.3594 50.25H30.3867C30.1536 50.25 29.9301 50.3426 29.7652 50.5074C29.6004 50.6723 29.5078 50.8958 29.5078 51.1289V58.9805C29.5078 59.2136 29.6004 59.4371 29.7652 59.602C29.9301 59.7668 30.1536 59.8594 30.3867 59.8594H37.3594V64.3125H30.3867C30.1536 64.3125 29.9301 64.4051 29.7652 64.5699C29.6004 64.7348 29.5078 64.9583 29.5078 65.1914V73.043C29.5078 73.2761 29.6004 73.4996 29.7652 73.6645C29.9301 73.8293 30.1536 73.9219 30.3867 73.9219H37.3594V82.2422H25.7578V47.2617C25.7586 46.5627 26.0366 45.8924 26.5309 45.3981C27.0253 44.9038 27.6955 44.6258 28.3945 44.625H37.3594V50.25ZM44.3906 28.3945C44.3914 27.6955 44.6694 27.0253 45.1638 26.5309C45.6581 26.0366 46.3283 25.7586 47.0273 25.7578H60.9727C61.6717 25.7586 62.3419 26.0367 62.8362 26.531C63.3305 27.0253 63.6086 27.6955 63.6094 28.3945V42.3398C63.6086 43.0389 63.3305 43.7091 62.8362 44.2034C62.3419 44.6977 61.6717 44.9758 60.9727 44.9766H47.0273C46.3283 44.9758 45.6581 44.6977 45.1638 44.2034C44.6694 43.7091 44.3914 43.0389 44.3906 42.3398V28.3945ZM58.6289 82.2422H49.3711V67.7695C49.3719 67.0705 49.6499 66.4003 50.1442 65.9059C50.6385 65.4116 51.3088 65.1336 52.0078 65.1328H55.9922C56.6912 65.1336 57.3614 65.4117 57.8557 65.906C58.35 66.4003 58.6281 67.0705 58.6289 67.7695V82.2422ZM68.8828 82.2422H60.3867V67.7695C60.3854 66.6044 59.922 65.4874 59.0981 64.6636C58.2743 63.8397 57.1573 63.3763 55.9922 63.375H52.0078C50.8427 63.3763 49.7257 63.8397 48.9018 64.6636C48.078 65.4874 47.6146 66.6044 47.6133 67.7695V82.2422H39.1172V38.9414C39.118 38.2423 39.396 37.5721 39.8903 37.0778C40.3846 36.5835 41.0548 36.3055 41.7539 36.3047H42.6328V42.3398C42.6341 43.5049 43.0975 44.622 43.9214 45.4458C44.7452 46.2697 45.8622 46.7331 47.0273 46.7344H60.9727C62.1378 46.7331 63.2548 46.2697 64.0786 45.4458C64.9025 44.622 65.3659 43.5049 65.3672 42.3398V36.3047H66.2461C66.9451 36.3055 67.6153 36.5835 68.1096 37.0779C68.604 37.5722 68.882 38.2424 68.8828 38.9414V82.2422ZM70.6406 52.0078H76.7344V58.1016H70.6406V52.0078ZM70.6406 66.0703H76.7344V72.1641H70.6406V66.0703ZM82.2422 82.2422H70.6406V73.9219H77.6133C77.8464 73.9219 78.0699 73.8293 78.2348 73.6645C78.3996 73.4996 78.4922 73.2761 78.4922 73.043V65.1914C78.4922 64.9583 78.3996 64.7348 78.2348 64.5699C78.0699 64.4051 77.8464 64.3125 77.6133 64.3125H70.6406V59.8594H77.6133C77.8464 59.8594 78.0699 59.7668 78.2348 59.602C78.3996 59.4371 78.4922 59.2136 78.4922 58.9805V51.1289C78.4922 50.8958 78.3996 50.6723 78.2348 50.5074C78.0699 50.3426 77.8464 50.25 77.6133 50.25H70.6406V44.625H79.6055C80.3045 44.6258 80.9747 44.9039 81.469 45.3982C81.9633 45.8925 82.2414 46.5627 82.2422 47.2617V82.2422ZM46.7598 40.6671H61.2401C61.4732 40.6671 61.6967 40.5745 61.8616 40.4097C62.0264 40.2449 62.119 40.0213 62.119 39.7882C62.119 39.5551 62.0264 39.3315 61.8616 39.1667C61.6967 39.0019 61.4732 38.9093 61.2401 38.9093H60.7787C60.6212 37.7219 60.1525 36.5973 59.4201 35.6496C58.6878 34.7018 57.7178 33.9645 56.6086 33.5126V32.6977C56.6086 32.0001 56.3315 31.331 55.8382 30.8378C55.3449 30.3445 54.6759 30.0674 53.9783 30.0674C53.2807 30.0674 52.6117 30.3445 52.1184 30.8378C51.6252 31.331 51.348 32.0001 51.348 32.6977V33.5128C50.239 33.9648 49.2691 34.7021 48.5369 35.6498C47.8046 36.5975 47.336 37.722 47.1785 38.9093H46.7598C46.5267 38.9093 46.3032 39.0019 46.1383 39.1667C45.9735 39.3315 45.8809 39.5551 45.8809 39.7882C45.8809 40.0213 45.9735 40.2449 46.1383 40.4097C46.3032 40.5745 46.5267 40.6671 46.7598 40.6671ZM53.1059 32.6977C53.1061 32.4662 53.1982 32.2443 53.3618 32.0806C53.5255 31.9169 53.7474 31.8249 53.9789 31.8246C54.2102 31.825 54.4319 31.9172 54.5954 32.0809C54.7588 32.2445 54.8507 32.4664 54.8508 32.6977V33.0619C54.5897 33.0309 54.327 33.0152 54.0641 33.0146H53.8932C53.6301 33.0152 53.3672 33.031 53.1059 33.062V32.6977ZM53.8932 34.7725H54.0641C55.2415 34.774 56.381 35.189 57.2836 35.9451C58.1863 36.7012 58.7947 37.7503 59.0026 38.9092H48.9546C49.1626 37.7502 49.771 36.7012 50.6736 35.9451C51.5763 35.189 52.7158 34.774 53.8932 34.7725ZM64.4883 50.25H56.6367C56.4036 50.25 56.1801 50.3426 56.0152 50.5074C55.8504 50.6723 55.7578 50.8958 55.7578 51.1289V58.9805C55.7578 59.2136 55.8504 59.4371 56.0152 59.602C56.1801 59.7668 56.4036 59.8594 56.6367 59.8594H64.4883C64.7214 59.8594 64.9449 59.7668 65.1098 59.602C65.2746 59.4371 65.3672 59.2136 65.3672 58.9805V51.1289C65.3672 50.8958 65.2746 50.6723 65.1098 50.5074C64.9449 50.3426 64.7214 50.25 64.4883 50.25ZM63.6094 58.1016H57.5156V52.0078H63.6094V58.1016Z" fill="#E2E5EC"></path>
</g>
<defs>
<clipPath id="clip0_9_5439">
<rect width="60" height="60" fill="white" transform="translate(24 24)"></rect>
</clipPath>
</defs>
</svg>
