<svg width="25" height="24" viewBox="0 0 25 24" fill="none" xmlns="http://www.w3.org/2000/svg">
<path fill-rule="evenodd" clip-rule="evenodd" d="M2.75 12C2.75 6.47784 7.22673 2 12.75 2C18.2722 2 22.75 6.47779 22.75 12C22.75 17.5222 18.2722 22 12.75 22C7.22673 22 2.75 17.5222 2.75 12ZM12.75 3.5C8.05527 3.5 4.25 7.30616 4.25 12C4.25 16.6938 8.05527 20.5 12.75 20.5C17.4438 20.5 21.25 16.6938 21.25 12C21.25 7.30621 17.4438 3.5 12.75 3.5Z" fill="#515151"></path>
<path fill-rule="evenodd" clip-rule="evenodd" d="M8.74962 10.0232C9.04315 9.73095 9.51802 9.73198 9.81028 10.0255L12.5727 12.7998C12.6704 12.8979 12.8292 12.898 12.927 12.7998L15.6893 10.0255C15.9816 9.73198 16.4565 9.73095 16.75 10.0232C17.0435 10.3155 17.0445 10.7903 16.7523 11.0839L13.9899 13.8582C13.3059 14.5452 12.1937 14.5452 11.5097 13.8582L8.74734 11.0839C8.45508 10.7903 8.4561 10.3155 8.74962 10.0232Z" fill="#515151"></path>
</svg>
