<svg width="48" height="48" viewBox="0 0 48 48" fill="none" xmlns="http://www.w3.org/2000/svg">
<path opacity="0.1" fill-rule="evenodd" clip-rule="evenodd" d="M24.1305 46.7386C36.7609 46.7386 46.9999 36.4997 46.9999 23.8693C46.9999 11.2389 36.7609 1 24.1305 1C11.5002 1 1.26123 11.2389 1.26123 23.8693C1.26123 36.4997 11.5002 46.7386 24.1305 46.7386Z" stroke="white" stroke-width="1.96023"></path>
<path d="M31.6058 19.6412C31.4997 19.5213 31.3286 19.4911 31.1882 19.5651C31.101 19.6111 30.9369 19.6714 30.742 19.731C30.9878 19.3949 31.1854 19.0185 31.2727 18.6802C31.3104 18.5344 31.2553 18.3807 31.1352 18.2938C31.0151 18.2076 30.8552 18.2076 30.7351 18.2938C30.5458 18.4296 29.6325 18.8375 29.055 18.9697C27.7499 17.7939 26.2311 17.6718 24.6523 18.6199C23.3688 19.3906 23.0895 20.9578 23.144 21.913C20.2063 21.6221 18.3803 20.0262 17.3524 18.7054C17.2805 18.6127 17.1646 18.5639 17.0556 18.5711C16.9411 18.5797 16.8378 18.645 16.7791 18.7463C16.2931 19.5902 16.1583 20.5232 16.3909 21.4447C16.5179 21.9475 16.74 22.3906 16.9977 22.7498C16.8741 22.6873 16.7547 22.609 16.6422 22.5156C16.5389 22.428 16.3943 22.4115 16.2721 22.4697C16.1506 22.5293 16.0731 22.6557 16.0731 22.7943C16.0731 24.3766 17.0354 25.4324 17.9341 25.984C17.7888 25.966 17.6373 25.933 17.4844 25.8849C17.3531 25.8439 17.2106 25.8849 17.1199 25.9912C17.0291 26.0968 17.0074 26.2476 17.064 26.3761C17.5689 27.5246 18.5255 28.3147 19.7091 28.6012C18.6756 29.2254 17.2923 29.5314 16.0256 29.3813C15.8615 29.3576 15.7051 29.4646 15.6535 29.6269C15.6018 29.7892 15.6695 29.9673 15.8141 30.0507C17.7358 31.1603 19.4731 31.5568 20.9744 31.5568C23.1593 31.5568 24.8457 30.7179 25.8722 30.0162C28.6395 28.1272 30.3643 24.7357 30.1241 21.7011C30.5675 21.3643 31.2308 20.7423 31.6421 20.0736C31.7273 19.9386 31.712 19.7605 31.6058 19.6412Z" fill="white"></path>
</svg>
